M48
; DRILL file {KiCad 9.0.4} date 2026-04-24T12:59:01-0700
; FORMAT={-:-/ absolute / metric / decimal}
; #@! TF.CreationDate,2026-04-24T12:59:01-07:00
; #@! TF.GenerationSoftware,Kicad,Pcbnew,9.0.4
; #@! TF.FileFunction,MixedPlating,1,2
FMAT,2
METRIC
; #@! TA.AperFunction,Plated,PTH,ComponentDrill
T1C0.800
; #@! TA.AperFunction,Plated,PTH,ComponentDrill
T2C0.900
; #@! TA.AperFunction,Plated,PTH,ComponentDrill
T3C1.000
%
G90
G05
T1
X106.45Y-94.915
X106.45Y-99.915
X109.6Y-95.0
X109.6Y-100.0
T2
X114.93Y-64.67
X114.93Y-67.21
X114.93Y-69.75
X114.93Y-72.29
X114.93Y-74.83
X114.93Y-77.37
X114.93Y-79.91
X114.93Y-82.45
X114.93Y-84.99
X114.93Y-87.53
X114.93Y-90.07
X114.93Y-92.61
X114.93Y-95.15
X114.93Y-97.69
X114.93Y-100.23
X140.13Y-64.71
X140.13Y-67.25
X140.13Y-69.79
X140.13Y-72.33
X140.13Y-74.87
X140.13Y-77.41
X140.13Y-79.95
X140.13Y-82.49
X140.13Y-85.03
X140.13Y-87.57
X140.13Y-90.11
X140.13Y-92.65
X140.13Y-95.19
X140.13Y-97.73
X140.13Y-100.27
T3
X102.79Y-64.63
X102.79Y-67.17
X102.79Y-69.71
X102.79Y-72.25
X102.79Y-74.79
X102.79Y-77.33
X102.79Y-79.87
X102.79Y-82.41
X102.79Y-84.95
X102.79Y-87.49
X102.79Y-90.03
X102.79Y-92.57
X102.79Y-95.11
X102.79Y-97.65
X145.1Y-74.82
X145.1Y-77.36
X145.1Y-79.9
X145.1Y-82.44
X145.1Y-84.98
M30
