%TF.GenerationSoftware,KiCad,Pcbnew,9.0.4*%
%TF.CreationDate,2026-02-18T17:55:15-08:00*%
%TF.ProjectId,Tool-Display-PCB,546f6f6c-2d44-4697-9370-6c61792d5043,rev?*%
%TF.SameCoordinates,Original*%
%TF.FileFunction,Soldermask,Bot*%
%TF.FilePolarity,Negative*%
%FSLAX46Y46*%
G04 Gerber Fmt 4.6, Leading zero omitted, Abs format (unit mm)*
G04 Created by KiCad (PCBNEW 9.0.4) date 2026-02-18 17:55:15*
%MOMM*%
%LPD*%
G01*
G04 APERTURE LIST*
%ADD10C,1.600000*%
%ADD11C,1.700000*%
%ADD12R,1.700000X1.700000*%
%ADD13C,1.500000*%
%ADD14R,1.500000X1.500000*%
G04 APERTURE END LIST*
D10*
%TO.C,C1*%
X109990000Y-107530000D03*
X109990000Y-102530000D03*
%TD*%
D11*
%TO.C,J1*%
X102790000Y-92570000D03*
X102790000Y-87490000D03*
X102790000Y-95110000D03*
X102790000Y-79870000D03*
X102790000Y-77330000D03*
X102790000Y-84950000D03*
X102790000Y-90030000D03*
X102790000Y-82410000D03*
X102790000Y-74790000D03*
X102790000Y-72250000D03*
X102790000Y-69710000D03*
X102790000Y-67170000D03*
X102790000Y-64630000D03*
D12*
X102790000Y-97650000D03*
%TD*%
D10*
%TO.C,C2*%
X104430000Y-107530000D03*
X104430000Y-102530000D03*
%TD*%
D13*
%TO.C,J2*%
X140130000Y-69790000D03*
X140130000Y-92650000D03*
X140130000Y-72330000D03*
X140130000Y-100270000D03*
X140130000Y-90110000D03*
X140130000Y-82490000D03*
X114930000Y-92610000D03*
X114930000Y-95150000D03*
X114930000Y-90070000D03*
X140130000Y-95190000D03*
X140130000Y-87570000D03*
X140130000Y-85030000D03*
X140130000Y-79950000D03*
X140130000Y-77410000D03*
X140130000Y-74870000D03*
X140130000Y-67250000D03*
X140130000Y-64710000D03*
X114930000Y-82450000D03*
X114930000Y-84990000D03*
X114930000Y-87530000D03*
X114930000Y-77370000D03*
X114930000Y-79910000D03*
X114930000Y-72290000D03*
X114930000Y-74830000D03*
X114930000Y-67210000D03*
X114930000Y-69750000D03*
D14*
X114930000Y-64670000D03*
D13*
X114930000Y-97690000D03*
X140130000Y-97730000D03*
X114930000Y-100230000D03*
%TD*%
M02*
