%TF.GenerationSoftware,KiCad,Pcbnew,9.0.4*%
%TF.CreationDate,2026-02-18T17:55:14-08:00*%
%TF.ProjectId,Tool-Display-PCB,546f6f6c-2d44-4697-9370-6c61792d5043,rev?*%
%TF.SameCoordinates,Original*%
%TF.FileFunction,Legend,Top*%
%TF.FilePolarity,Positive*%
%FSLAX46Y46*%
G04 Gerber Fmt 4.6, Leading zero omitted, Abs format (unit mm)*
G04 Created by KiCad (PCBNEW 9.0.4) date 2026-02-18 17:55:14*
%MOMM*%
%LPD*%
G01*
G04 APERTURE LIST*
%ADD10C,0.300000*%
%ADD11C,0.100000*%
%ADD12C,0.150000*%
%ADD13C,0.120000*%
G04 APERTURE END LIST*
D10*
X101564510Y-59550828D02*
X101564510Y-58050828D01*
X101564510Y-58050828D02*
X101921653Y-58050828D01*
X101921653Y-58050828D02*
X102135939Y-58122257D01*
X102135939Y-58122257D02*
X102278796Y-58265114D01*
X102278796Y-58265114D02*
X102350225Y-58407971D01*
X102350225Y-58407971D02*
X102421653Y-58693685D01*
X102421653Y-58693685D02*
X102421653Y-58907971D01*
X102421653Y-58907971D02*
X102350225Y-59193685D01*
X102350225Y-59193685D02*
X102278796Y-59336542D01*
X102278796Y-59336542D02*
X102135939Y-59479400D01*
X102135939Y-59479400D02*
X101921653Y-59550828D01*
X101921653Y-59550828D02*
X101564510Y-59550828D01*
X103064510Y-58765114D02*
X103564510Y-58765114D01*
X103778796Y-59550828D02*
X103064510Y-59550828D01*
X103064510Y-59550828D02*
X103064510Y-58050828D01*
X103064510Y-58050828D02*
X103778796Y-58050828D01*
X104421653Y-59550828D02*
X104421653Y-58050828D01*
X104421653Y-58050828D02*
X105278796Y-59550828D01*
X105278796Y-59550828D02*
X105278796Y-58050828D01*
X105778797Y-58050828D02*
X106635940Y-58050828D01*
X106207368Y-59550828D02*
X106207368Y-58050828D01*
X107421654Y-58050828D02*
X107707368Y-58050828D01*
X107707368Y-58050828D02*
X107850225Y-58122257D01*
X107850225Y-58122257D02*
X107993082Y-58265114D01*
X107993082Y-58265114D02*
X108064511Y-58550828D01*
X108064511Y-58550828D02*
X108064511Y-59050828D01*
X108064511Y-59050828D02*
X107993082Y-59336542D01*
X107993082Y-59336542D02*
X107850225Y-59479400D01*
X107850225Y-59479400D02*
X107707368Y-59550828D01*
X107707368Y-59550828D02*
X107421654Y-59550828D01*
X107421654Y-59550828D02*
X107278797Y-59479400D01*
X107278797Y-59479400D02*
X107135939Y-59336542D01*
X107135939Y-59336542D02*
X107064511Y-59050828D01*
X107064511Y-59050828D02*
X107064511Y-58550828D01*
X107064511Y-58550828D02*
X107135939Y-58265114D01*
X107135939Y-58265114D02*
X107278797Y-58122257D01*
X107278797Y-58122257D02*
X107421654Y-58050828D01*
X108707368Y-59550828D02*
X108707368Y-58050828D01*
X108707368Y-58050828D02*
X109564511Y-59550828D01*
X109564511Y-59550828D02*
X109564511Y-58050828D01*
X110278797Y-59407971D02*
X110350226Y-59479400D01*
X110350226Y-59479400D02*
X110278797Y-59550828D01*
X110278797Y-59550828D02*
X110207369Y-59479400D01*
X110207369Y-59479400D02*
X110278797Y-59407971D01*
X110278797Y-59407971D02*
X110278797Y-59550828D01*
X110850226Y-58050828D02*
X111207369Y-59550828D01*
X111207369Y-59550828D02*
X111493083Y-58479400D01*
X111493083Y-58479400D02*
X111778798Y-59550828D01*
X111778798Y-59550828D02*
X112135941Y-58050828D01*
X112993084Y-58050828D02*
X113278798Y-58050828D01*
X113278798Y-58050828D02*
X113421655Y-58122257D01*
X113421655Y-58122257D02*
X113564512Y-58265114D01*
X113564512Y-58265114D02*
X113635941Y-58550828D01*
X113635941Y-58550828D02*
X113635941Y-59050828D01*
X113635941Y-59050828D02*
X113564512Y-59336542D01*
X113564512Y-59336542D02*
X113421655Y-59479400D01*
X113421655Y-59479400D02*
X113278798Y-59550828D01*
X113278798Y-59550828D02*
X112993084Y-59550828D01*
X112993084Y-59550828D02*
X112850227Y-59479400D01*
X112850227Y-59479400D02*
X112707369Y-59336542D01*
X112707369Y-59336542D02*
X112635941Y-59050828D01*
X112635941Y-59050828D02*
X112635941Y-58550828D01*
X112635941Y-58550828D02*
X112707369Y-58265114D01*
X112707369Y-58265114D02*
X112850227Y-58122257D01*
X112850227Y-58122257D02*
X112993084Y-58050828D01*
X115135941Y-59550828D02*
X114635941Y-58836542D01*
X114278798Y-59550828D02*
X114278798Y-58050828D01*
X114278798Y-58050828D02*
X114850227Y-58050828D01*
X114850227Y-58050828D02*
X114993084Y-58122257D01*
X114993084Y-58122257D02*
X115064513Y-58193685D01*
X115064513Y-58193685D02*
X115135941Y-58336542D01*
X115135941Y-58336542D02*
X115135941Y-58550828D01*
X115135941Y-58550828D02*
X115064513Y-58693685D01*
X115064513Y-58693685D02*
X114993084Y-58765114D01*
X114993084Y-58765114D02*
X114850227Y-58836542D01*
X114850227Y-58836542D02*
X114278798Y-58836542D01*
X115778798Y-59550828D02*
X115778798Y-58050828D01*
X116635941Y-59550828D02*
X115993084Y-58693685D01*
X116635941Y-58050828D02*
X115778798Y-58907971D01*
X117207370Y-59479400D02*
X117421656Y-59550828D01*
X117421656Y-59550828D02*
X117778798Y-59550828D01*
X117778798Y-59550828D02*
X117921656Y-59479400D01*
X117921656Y-59479400D02*
X117993084Y-59407971D01*
X117993084Y-59407971D02*
X118064513Y-59265114D01*
X118064513Y-59265114D02*
X118064513Y-59122257D01*
X118064513Y-59122257D02*
X117993084Y-58979400D01*
X117993084Y-58979400D02*
X117921656Y-58907971D01*
X117921656Y-58907971D02*
X117778798Y-58836542D01*
X117778798Y-58836542D02*
X117493084Y-58765114D01*
X117493084Y-58765114D02*
X117350227Y-58693685D01*
X117350227Y-58693685D02*
X117278798Y-58622257D01*
X117278798Y-58622257D02*
X117207370Y-58479400D01*
X117207370Y-58479400D02*
X117207370Y-58336542D01*
X117207370Y-58336542D02*
X117278798Y-58193685D01*
X117278798Y-58193685D02*
X117350227Y-58122257D01*
X117350227Y-58122257D02*
X117493084Y-58050828D01*
X117493084Y-58050828D02*
X117850227Y-58050828D01*
X117850227Y-58050828D02*
X118064513Y-58122257D01*
D11*
X105891027Y-97372419D02*
X106224360Y-98372419D01*
X106224360Y-98372419D02*
X106557693Y-97372419D01*
X107462455Y-98277180D02*
X107414836Y-98324800D01*
X107414836Y-98324800D02*
X107271979Y-98372419D01*
X107271979Y-98372419D02*
X107176741Y-98372419D01*
X107176741Y-98372419D02*
X107033884Y-98324800D01*
X107033884Y-98324800D02*
X106938646Y-98229561D01*
X106938646Y-98229561D02*
X106891027Y-98134323D01*
X106891027Y-98134323D02*
X106843408Y-97943847D01*
X106843408Y-97943847D02*
X106843408Y-97800990D01*
X106843408Y-97800990D02*
X106891027Y-97610514D01*
X106891027Y-97610514D02*
X106938646Y-97515276D01*
X106938646Y-97515276D02*
X107033884Y-97420038D01*
X107033884Y-97420038D02*
X107176741Y-97372419D01*
X107176741Y-97372419D02*
X107271979Y-97372419D01*
X107271979Y-97372419D02*
X107414836Y-97420038D01*
X107414836Y-97420038D02*
X107462455Y-97467657D01*
X108462455Y-98277180D02*
X108414836Y-98324800D01*
X108414836Y-98324800D02*
X108271979Y-98372419D01*
X108271979Y-98372419D02*
X108176741Y-98372419D01*
X108176741Y-98372419D02*
X108033884Y-98324800D01*
X108033884Y-98324800D02*
X107938646Y-98229561D01*
X107938646Y-98229561D02*
X107891027Y-98134323D01*
X107891027Y-98134323D02*
X107843408Y-97943847D01*
X107843408Y-97943847D02*
X107843408Y-97800990D01*
X107843408Y-97800990D02*
X107891027Y-97610514D01*
X107891027Y-97610514D02*
X107938646Y-97515276D01*
X107938646Y-97515276D02*
X108033884Y-97420038D01*
X108033884Y-97420038D02*
X108176741Y-97372419D01*
X108176741Y-97372419D02*
X108271979Y-97372419D01*
X108271979Y-97372419D02*
X108414836Y-97420038D01*
X108414836Y-97420038D02*
X108462455Y-97467657D01*
D12*
X110349580Y-105196666D02*
X110397200Y-105244285D01*
X110397200Y-105244285D02*
X110444819Y-105387142D01*
X110444819Y-105387142D02*
X110444819Y-105482380D01*
X110444819Y-105482380D02*
X110397200Y-105625237D01*
X110397200Y-105625237D02*
X110301961Y-105720475D01*
X110301961Y-105720475D02*
X110206723Y-105768094D01*
X110206723Y-105768094D02*
X110016247Y-105815713D01*
X110016247Y-105815713D02*
X109873390Y-105815713D01*
X109873390Y-105815713D02*
X109682914Y-105768094D01*
X109682914Y-105768094D02*
X109587676Y-105720475D01*
X109587676Y-105720475D02*
X109492438Y-105625237D01*
X109492438Y-105625237D02*
X109444819Y-105482380D01*
X109444819Y-105482380D02*
X109444819Y-105387142D01*
X109444819Y-105387142D02*
X109492438Y-105244285D01*
X109492438Y-105244285D02*
X109540057Y-105196666D01*
X110444819Y-104244285D02*
X110444819Y-104815713D01*
X110444819Y-104529999D02*
X109444819Y-104529999D01*
X109444819Y-104529999D02*
X109587676Y-104625237D01*
X109587676Y-104625237D02*
X109682914Y-104720475D01*
X109682914Y-104720475D02*
X109730533Y-104815713D01*
X107804819Y-69818094D02*
X106804819Y-69818094D01*
X106804819Y-69818094D02*
X106804819Y-69579999D01*
X106804819Y-69579999D02*
X106852438Y-69437142D01*
X106852438Y-69437142D02*
X106947676Y-69341904D01*
X106947676Y-69341904D02*
X107042914Y-69294285D01*
X107042914Y-69294285D02*
X107233390Y-69246666D01*
X107233390Y-69246666D02*
X107376247Y-69246666D01*
X107376247Y-69246666D02*
X107566723Y-69294285D01*
X107566723Y-69294285D02*
X107661961Y-69341904D01*
X107661961Y-69341904D02*
X107757200Y-69437142D01*
X107757200Y-69437142D02*
X107804819Y-69579999D01*
X107804819Y-69579999D02*
X107804819Y-69818094D01*
X107804819Y-68818094D02*
X106804819Y-68818094D01*
X107757200Y-68389523D02*
X107804819Y-68246666D01*
X107804819Y-68246666D02*
X107804819Y-68008571D01*
X107804819Y-68008571D02*
X107757200Y-67913333D01*
X107757200Y-67913333D02*
X107709580Y-67865714D01*
X107709580Y-67865714D02*
X107614342Y-67818095D01*
X107614342Y-67818095D02*
X107519104Y-67818095D01*
X107519104Y-67818095D02*
X107423866Y-67865714D01*
X107423866Y-67865714D02*
X107376247Y-67913333D01*
X107376247Y-67913333D02*
X107328628Y-68008571D01*
X107328628Y-68008571D02*
X107281009Y-68199047D01*
X107281009Y-68199047D02*
X107233390Y-68294285D01*
X107233390Y-68294285D02*
X107185771Y-68341904D01*
X107185771Y-68341904D02*
X107090533Y-68389523D01*
X107090533Y-68389523D02*
X106995295Y-68389523D01*
X106995295Y-68389523D02*
X106900057Y-68341904D01*
X106900057Y-68341904D02*
X106852438Y-68294285D01*
X106852438Y-68294285D02*
X106804819Y-68199047D01*
X106804819Y-68199047D02*
X106804819Y-67960952D01*
X106804819Y-67960952D02*
X106852438Y-67818095D01*
X107804819Y-67389523D02*
X106804819Y-67389523D01*
X106804819Y-67389523D02*
X106804819Y-67008571D01*
X106804819Y-67008571D02*
X106852438Y-66913333D01*
X106852438Y-66913333D02*
X106900057Y-66865714D01*
X106900057Y-66865714D02*
X106995295Y-66818095D01*
X106995295Y-66818095D02*
X107138152Y-66818095D01*
X107138152Y-66818095D02*
X107233390Y-66865714D01*
X107233390Y-66865714D02*
X107281009Y-66913333D01*
X107281009Y-66913333D02*
X107328628Y-67008571D01*
X107328628Y-67008571D02*
X107328628Y-67389523D01*
X107804819Y-65913333D02*
X107804819Y-66389523D01*
X107804819Y-66389523D02*
X106804819Y-66389523D01*
X107519104Y-65627618D02*
X107519104Y-65151428D01*
X107804819Y-65722856D02*
X106804819Y-65389523D01*
X106804819Y-65389523D02*
X107804819Y-65056190D01*
X107328628Y-64532380D02*
X107804819Y-64532380D01*
X106804819Y-64865713D02*
X107328628Y-64532380D01*
X107328628Y-64532380D02*
X106804819Y-64199047D01*
X104789580Y-105196666D02*
X104837200Y-105244285D01*
X104837200Y-105244285D02*
X104884819Y-105387142D01*
X104884819Y-105387142D02*
X104884819Y-105482380D01*
X104884819Y-105482380D02*
X104837200Y-105625237D01*
X104837200Y-105625237D02*
X104741961Y-105720475D01*
X104741961Y-105720475D02*
X104646723Y-105768094D01*
X104646723Y-105768094D02*
X104456247Y-105815713D01*
X104456247Y-105815713D02*
X104313390Y-105815713D01*
X104313390Y-105815713D02*
X104122914Y-105768094D01*
X104122914Y-105768094D02*
X104027676Y-105720475D01*
X104027676Y-105720475D02*
X103932438Y-105625237D01*
X103932438Y-105625237D02*
X103884819Y-105482380D01*
X103884819Y-105482380D02*
X103884819Y-105387142D01*
X103884819Y-105387142D02*
X103932438Y-105244285D01*
X103932438Y-105244285D02*
X103980057Y-105196666D01*
X103980057Y-104815713D02*
X103932438Y-104768094D01*
X103932438Y-104768094D02*
X103884819Y-104672856D01*
X103884819Y-104672856D02*
X103884819Y-104434761D01*
X103884819Y-104434761D02*
X103932438Y-104339523D01*
X103932438Y-104339523D02*
X103980057Y-104291904D01*
X103980057Y-104291904D02*
X104075295Y-104244285D01*
X104075295Y-104244285D02*
X104170533Y-104244285D01*
X104170533Y-104244285D02*
X104313390Y-104291904D01*
X104313390Y-104291904D02*
X104884819Y-104863332D01*
X104884819Y-104863332D02*
X104884819Y-104244285D01*
D11*
X124143884Y-105532419D02*
X124143884Y-106341942D01*
X124143884Y-106341942D02*
X124191503Y-106437180D01*
X124191503Y-106437180D02*
X124239122Y-106484800D01*
X124239122Y-106484800D02*
X124334360Y-106532419D01*
X124334360Y-106532419D02*
X124524836Y-106532419D01*
X124524836Y-106532419D02*
X124620074Y-106484800D01*
X124620074Y-106484800D02*
X124667693Y-106437180D01*
X124667693Y-106437180D02*
X124715312Y-106341942D01*
X124715312Y-106341942D02*
X124715312Y-105532419D01*
X125143884Y-106484800D02*
X125286741Y-106532419D01*
X125286741Y-106532419D02*
X125524836Y-106532419D01*
X125524836Y-106532419D02*
X125620074Y-106484800D01*
X125620074Y-106484800D02*
X125667693Y-106437180D01*
X125667693Y-106437180D02*
X125715312Y-106341942D01*
X125715312Y-106341942D02*
X125715312Y-106246704D01*
X125715312Y-106246704D02*
X125667693Y-106151466D01*
X125667693Y-106151466D02*
X125620074Y-106103847D01*
X125620074Y-106103847D02*
X125524836Y-106056228D01*
X125524836Y-106056228D02*
X125334360Y-106008609D01*
X125334360Y-106008609D02*
X125239122Y-105960990D01*
X125239122Y-105960990D02*
X125191503Y-105913371D01*
X125191503Y-105913371D02*
X125143884Y-105818133D01*
X125143884Y-105818133D02*
X125143884Y-105722895D01*
X125143884Y-105722895D02*
X125191503Y-105627657D01*
X125191503Y-105627657D02*
X125239122Y-105580038D01*
X125239122Y-105580038D02*
X125334360Y-105532419D01*
X125334360Y-105532419D02*
X125572455Y-105532419D01*
X125572455Y-105532419D02*
X125715312Y-105580038D01*
X126477217Y-106008609D02*
X126620074Y-106056228D01*
X126620074Y-106056228D02*
X126667693Y-106103847D01*
X126667693Y-106103847D02*
X126715312Y-106199085D01*
X126715312Y-106199085D02*
X126715312Y-106341942D01*
X126715312Y-106341942D02*
X126667693Y-106437180D01*
X126667693Y-106437180D02*
X126620074Y-106484800D01*
X126620074Y-106484800D02*
X126524836Y-106532419D01*
X126524836Y-106532419D02*
X126143884Y-106532419D01*
X126143884Y-106532419D02*
X126143884Y-105532419D01*
X126143884Y-105532419D02*
X126477217Y-105532419D01*
X126477217Y-105532419D02*
X126572455Y-105580038D01*
X126572455Y-105580038D02*
X126620074Y-105627657D01*
X126620074Y-105627657D02*
X126667693Y-105722895D01*
X126667693Y-105722895D02*
X126667693Y-105818133D01*
X126667693Y-105818133D02*
X126620074Y-105913371D01*
X126620074Y-105913371D02*
X126572455Y-105960990D01*
X126572455Y-105960990D02*
X126477217Y-106008609D01*
X126477217Y-106008609D02*
X126143884Y-106008609D01*
X127858170Y-106484800D02*
X128001027Y-106532419D01*
X128001027Y-106532419D02*
X128239122Y-106532419D01*
X128239122Y-106532419D02*
X128334360Y-106484800D01*
X128334360Y-106484800D02*
X128381979Y-106437180D01*
X128381979Y-106437180D02*
X128429598Y-106341942D01*
X128429598Y-106341942D02*
X128429598Y-106246704D01*
X128429598Y-106246704D02*
X128381979Y-106151466D01*
X128381979Y-106151466D02*
X128334360Y-106103847D01*
X128334360Y-106103847D02*
X128239122Y-106056228D01*
X128239122Y-106056228D02*
X128048646Y-106008609D01*
X128048646Y-106008609D02*
X127953408Y-105960990D01*
X127953408Y-105960990D02*
X127905789Y-105913371D01*
X127905789Y-105913371D02*
X127858170Y-105818133D01*
X127858170Y-105818133D02*
X127858170Y-105722895D01*
X127858170Y-105722895D02*
X127905789Y-105627657D01*
X127905789Y-105627657D02*
X127953408Y-105580038D01*
X127953408Y-105580038D02*
X128048646Y-105532419D01*
X128048646Y-105532419D02*
X128286741Y-105532419D01*
X128286741Y-105532419D02*
X128429598Y-105580038D01*
X128858170Y-106532419D02*
X128858170Y-105865752D01*
X128858170Y-105532419D02*
X128810551Y-105580038D01*
X128810551Y-105580038D02*
X128858170Y-105627657D01*
X128858170Y-105627657D02*
X128905789Y-105580038D01*
X128905789Y-105580038D02*
X128858170Y-105532419D01*
X128858170Y-105532419D02*
X128858170Y-105627657D01*
X129762931Y-106532419D02*
X129762931Y-105532419D01*
X129762931Y-106484800D02*
X129667693Y-106532419D01*
X129667693Y-106532419D02*
X129477217Y-106532419D01*
X129477217Y-106532419D02*
X129381979Y-106484800D01*
X129381979Y-106484800D02*
X129334360Y-106437180D01*
X129334360Y-106437180D02*
X129286741Y-106341942D01*
X129286741Y-106341942D02*
X129286741Y-106056228D01*
X129286741Y-106056228D02*
X129334360Y-105960990D01*
X129334360Y-105960990D02*
X129381979Y-105913371D01*
X129381979Y-105913371D02*
X129477217Y-105865752D01*
X129477217Y-105865752D02*
X129667693Y-105865752D01*
X129667693Y-105865752D02*
X129762931Y-105913371D01*
X130620074Y-106484800D02*
X130524836Y-106532419D01*
X130524836Y-106532419D02*
X130334360Y-106532419D01*
X130334360Y-106532419D02*
X130239122Y-106484800D01*
X130239122Y-106484800D02*
X130191503Y-106389561D01*
X130191503Y-106389561D02*
X130191503Y-106008609D01*
X130191503Y-106008609D02*
X130239122Y-105913371D01*
X130239122Y-105913371D02*
X130334360Y-105865752D01*
X130334360Y-105865752D02*
X130524836Y-105865752D01*
X130524836Y-105865752D02*
X130620074Y-105913371D01*
X130620074Y-105913371D02*
X130667693Y-106008609D01*
X130667693Y-106008609D02*
X130667693Y-106103847D01*
X130667693Y-106103847D02*
X130191503Y-106199085D01*
D12*
X125288095Y-62139104D02*
X125764285Y-62139104D01*
X125192857Y-62424819D02*
X125526190Y-61424819D01*
X125526190Y-61424819D02*
X125859523Y-62424819D01*
X126192857Y-61758152D02*
X126192857Y-62424819D01*
X126192857Y-61853390D02*
X126240476Y-61805771D01*
X126240476Y-61805771D02*
X126335714Y-61758152D01*
X126335714Y-61758152D02*
X126478571Y-61758152D01*
X126478571Y-61758152D02*
X126573809Y-61805771D01*
X126573809Y-61805771D02*
X126621428Y-61901009D01*
X126621428Y-61901009D02*
X126621428Y-62424819D01*
X126954762Y-61758152D02*
X127335714Y-61758152D01*
X127097619Y-61424819D02*
X127097619Y-62281961D01*
X127097619Y-62281961D02*
X127145238Y-62377200D01*
X127145238Y-62377200D02*
X127240476Y-62424819D01*
X127240476Y-62424819D02*
X127335714Y-62424819D01*
X128050000Y-62377200D02*
X127954762Y-62424819D01*
X127954762Y-62424819D02*
X127764286Y-62424819D01*
X127764286Y-62424819D02*
X127669048Y-62377200D01*
X127669048Y-62377200D02*
X127621429Y-62281961D01*
X127621429Y-62281961D02*
X127621429Y-61901009D01*
X127621429Y-61901009D02*
X127669048Y-61805771D01*
X127669048Y-61805771D02*
X127764286Y-61758152D01*
X127764286Y-61758152D02*
X127954762Y-61758152D01*
X127954762Y-61758152D02*
X128050000Y-61805771D01*
X128050000Y-61805771D02*
X128097619Y-61901009D01*
X128097619Y-61901009D02*
X128097619Y-61996247D01*
X128097619Y-61996247D02*
X127621429Y-62091485D01*
X128526191Y-61758152D02*
X128526191Y-62424819D01*
X128526191Y-61853390D02*
X128573810Y-61805771D01*
X128573810Y-61805771D02*
X128669048Y-61758152D01*
X128669048Y-61758152D02*
X128811905Y-61758152D01*
X128811905Y-61758152D02*
X128907143Y-61805771D01*
X128907143Y-61805771D02*
X128954762Y-61901009D01*
X128954762Y-61901009D02*
X128954762Y-62424819D01*
X129430953Y-61758152D02*
X129430953Y-62424819D01*
X129430953Y-61853390D02*
X129478572Y-61805771D01*
X129478572Y-61805771D02*
X129573810Y-61758152D01*
X129573810Y-61758152D02*
X129716667Y-61758152D01*
X129716667Y-61758152D02*
X129811905Y-61805771D01*
X129811905Y-61805771D02*
X129859524Y-61901009D01*
X129859524Y-61901009D02*
X129859524Y-62424819D01*
X130764286Y-62424819D02*
X130764286Y-61901009D01*
X130764286Y-61901009D02*
X130716667Y-61805771D01*
X130716667Y-61805771D02*
X130621429Y-61758152D01*
X130621429Y-61758152D02*
X130430953Y-61758152D01*
X130430953Y-61758152D02*
X130335715Y-61805771D01*
X130764286Y-62377200D02*
X130669048Y-62424819D01*
X130669048Y-62424819D02*
X130430953Y-62424819D01*
X130430953Y-62424819D02*
X130335715Y-62377200D01*
X130335715Y-62377200D02*
X130288096Y-62281961D01*
X130288096Y-62281961D02*
X130288096Y-62186723D01*
X130288096Y-62186723D02*
X130335715Y-62091485D01*
X130335715Y-62091485D02*
X130430953Y-62043866D01*
X130430953Y-62043866D02*
X130669048Y-62043866D01*
X130669048Y-62043866D02*
X130764286Y-61996247D01*
D13*
%TO.C,C1*%
X107670000Y-101160000D02*
X112310000Y-101160000D01*
X107670000Y-108900000D02*
X107670000Y-101160000D01*
X112310000Y-101160000D02*
X112310000Y-108900000D01*
X112310000Y-108900000D02*
X107670000Y-108900000D01*
%TO.C,J1*%
X101460000Y-96380000D02*
X101460000Y-63300000D01*
X101460000Y-98980000D02*
X101460000Y-97650000D01*
X102790000Y-98980000D02*
X101460000Y-98980000D01*
X104120000Y-63300000D02*
X101460000Y-63300000D01*
X104120000Y-96380000D02*
X101460000Y-96380000D01*
X104120000Y-96380000D02*
X104120000Y-63300000D01*
%TO.C,C2*%
X102110000Y-101160000D02*
X106750000Y-101160000D01*
X102110000Y-108900000D02*
X102110000Y-101160000D01*
X106750000Y-101160000D02*
X106750000Y-108900000D01*
X106750000Y-108900000D02*
X102110000Y-108900000D01*
%TO.C,J2*%
X113660000Y-109570000D02*
X113660000Y-63120000D01*
D11*
X121330000Y-57467500D02*
X134030000Y-57467500D01*
X121330000Y-63089803D02*
X121330000Y-57467500D01*
X134030000Y-57467500D02*
X134030000Y-62872500D01*
X139060000Y-63020000D02*
X113660000Y-63120000D01*
X141530000Y-63020000D02*
X139060000Y-63020000D01*
D13*
X141530000Y-109570000D02*
X113660000Y-109570000D01*
D11*
X141530000Y-109570000D02*
X141530000Y-63020000D01*
%TD*%
M02*
