%TF.GenerationSoftware,KiCad,Pcbnew,9.0.4*%
%TF.CreationDate,2026-04-24T12:58:58-07:00*%
%TF.ProjectId,Tool-Display-PCB,546f6f6c-2d44-4697-9370-6c61792d5043,rev?*%
%TF.SameCoordinates,Original*%
%TF.FileFunction,Copper,L2,Bot*%
%TF.FilePolarity,Positive*%
%FSLAX46Y46*%
G04 Gerber Fmt 4.6, Leading zero omitted, Abs format (unit mm)*
G04 Created by KiCad (PCBNEW 9.0.4) date 2026-04-24 12:58:58*
%MOMM*%
%LPD*%
G01*
G04 APERTURE LIST*
%TA.AperFunction,ComponentPad*%
%ADD10C,1.600000*%
%TD*%
%TA.AperFunction,ComponentPad*%
%ADD11C,1.700000*%
%TD*%
%TA.AperFunction,ComponentPad*%
%ADD12R,1.700000X1.700000*%
%TD*%
%TA.AperFunction,ComponentPad*%
%ADD13C,1.500000*%
%TD*%
%TA.AperFunction,ComponentPad*%
%ADD14R,1.500000X1.500000*%
%TD*%
%TA.AperFunction,Conductor*%
%ADD15C,0.200000*%
%TD*%
G04 APERTURE END LIST*
D10*
%TO.P,C1,1*%
%TO.N,GND*%
X109600000Y-95000000D03*
%TO.P,C1,2*%
%TO.N,Net-(J1-Pin_1)*%
X109600000Y-100000000D03*
%TD*%
D11*
%TO.P,J1,CS,Pin_3*%
%TO.N,Net-(J1-Pin_3)*%
X102790000Y-92570000D03*
%TO.P,J1,DC,Pin_5*%
%TO.N,Net-(J1-Pin_5)*%
X102790000Y-87490000D03*
%TO.P,J1,GND,Pin_2*%
%TO.N,GND*%
X102790000Y-95110000D03*
%TO.P,J1,LED,Pin_8*%
%TO.N,Net-(J1-Pin_1)*%
X102790000Y-79870000D03*
%TO.P,J1,MISO,Pin_9*%
%TO.N,unconnected-(J1-Pin_9-PadMISO)*%
X102790000Y-77330000D03*
%TO.P,J1,MOSI,Pin_6*%
%TO.N,Net-(J1-Pin_12)*%
X102790000Y-84950000D03*
%TO.P,J1,RST,Pin_4*%
%TO.N,Net-(J1-Pin_4)*%
X102790000Y-90030000D03*
%TO.P,J1,SCK,Pin_7*%
%TO.N,Net-(J1-Pin_10)*%
X102790000Y-82410000D03*
%TO.P,J1,T_CLK,Pin_10*%
X102790000Y-74790000D03*
%TO.P,J1,T_CS*%
%TO.N,Net-(J2-Pin_9)*%
X102790000Y-72250000D03*
%TO.P,J1,T_DIN,Pin_12*%
%TO.N,Net-(J1-Pin_12)*%
X102790000Y-69710000D03*
%TO.P,J1,T_DO*%
%TO.N,Net-(J2-Pin_10)*%
X102790000Y-67170000D03*
%TO.P,J1,T_IRQ*%
%TO.N,unconnected-(J1-PadT_IRQ)*%
X102790000Y-64630000D03*
D12*
%TO.P,J1,VCC,Pin_1*%
%TO.N,Net-(J1-Pin_1)*%
X102790000Y-97650000D03*
%TD*%
D11*
%TO.P,J4,D+,Pin_3*%
%TO.N,unconnected-(J4-Pin_3-PadD+)*%
X145100000Y-79900000D03*
%TO.P,J4,D-,Pin_4*%
%TO.N,unconnected-(J4-Pin_4-PadD-)*%
X145100000Y-82440000D03*
D12*
%TO.P,J4,GND,Pin_1*%
%TO.N,GND*%
X145100000Y-74820000D03*
D11*
%TO.P,J4,IO,Pin_2*%
%TO.N,unconnected-(J4-Pin_2-PadIO)*%
X145100000Y-77360000D03*
%TO.P,J4,VIN,Pin_5*%
%TO.N,Net-(J1-Pin_1)*%
X145100000Y-84980000D03*
%TD*%
D10*
%TO.P,C2,1*%
%TO.N,GND*%
X106450006Y-94915000D03*
%TO.P,C2,2*%
%TO.N,Net-(J1-Pin_1)*%
X106450006Y-99915000D03*
%TD*%
D13*
%TO.P,J2,1,Pin_17*%
%TO.N,unconnected-(J2-Pin_17-Pad1)*%
X140130000Y-69790000D03*
%TO.P,J2,2,Pin_27*%
%TO.N,unconnected-(J2-Pin_27-Pad2)*%
X140130000Y-92650000D03*
%TO.P,J2,3,Pin_18*%
%TO.N,unconnected-(J2-Pin_18-Pad3)*%
X140130000Y-72330000D03*
%TO.P,J2,3.3V*%
%TO.N,N/C*%
X140130000Y-100270000D03*
%TO.P,J2,4,Pin_25*%
%TO.N,unconnected-(J2-Pin_25-Pad4)*%
X140130000Y-90110000D03*
%TO.P,J2,5,Pin_22*%
%TO.N,unconnected-(J2-Pin_22-Pad5)*%
X140130000Y-82490000D03*
%TO.P,J2,12,Pin_4*%
%TO.N,unconnected-(J2-Pin_4-Pad12)*%
X114930000Y-92610000D03*
%TO.P,J2,13,Pin_3*%
%TO.N,Net-(J1-Pin_3)*%
X114930000Y-95150000D03*
%TO.P,J2,14,Pin_5*%
%TO.N,Net-(J1-Pin_4)*%
X114930000Y-90070000D03*
%TO.P,J2,15,Pin_28*%
%TO.N,unconnected-(J2-Pin_28-Pad15)*%
X140130000Y-95190000D03*
%TO.P,J2,16,Pin_24*%
%TO.N,unconnected-(J2-Pin_24-Pad16)*%
X140130000Y-87570000D03*
%TO.P,J2,17,Pin_23*%
%TO.N,unconnected-(J2-Pin_23-Pad17)*%
X140130000Y-85030000D03*
%TO.P,J2,18,Pin_21*%
%TO.N,unconnected-(J2-Pin_21-Pad18)*%
X140130000Y-79950000D03*
%TO.P,J2,19,Pin_20*%
%TO.N,unconnected-(J2-Pin_20-Pad19)*%
X140130000Y-77410000D03*
%TO.P,J2,21,Pin_19*%
%TO.N,unconnected-(J2-Pin_19-Pad21)*%
X140130000Y-74870000D03*
%TO.P,J2,22,Pin_16*%
%TO.N,unconnected-(J2-Pin_16-Pad22)*%
X140130000Y-67250000D03*
%TO.P,J2,23,Pin_15*%
%TO.N,unconnected-(J2-Pin_15-Pad23)*%
X140130000Y-64710000D03*
%TO.P,J2,25,Pin_8*%
%TO.N,Net-(J1-Pin_10)*%
X114930000Y-82450000D03*
%TO.P,J2,26,Pin_7*%
%TO.N,Net-(J1-Pin_12)*%
X114930000Y-84990000D03*
%TO.P,J2,27,Pin_6*%
%TO.N,Net-(J1-Pin_5)*%
X114930000Y-87530000D03*
%TO.P,J2,32,Pin_10*%
%TO.N,Net-(J2-Pin_10)*%
X114930000Y-77370000D03*
%TO.P,J2,33,Pin_9*%
%TO.N,Net-(J2-Pin_9)*%
X114930000Y-79910000D03*
%TO.P,J2,34,Pin_12*%
%TO.N,unconnected-(J2-Pin_12-Pad34)*%
X114930000Y-72290000D03*
%TO.P,J2,35,Pin_11*%
%TO.N,unconnected-(J2-Pin_11-Pad35)*%
X114930000Y-74830000D03*
%TO.P,J2,36,36*%
%TO.N,unconnected-(J2-Pad36)*%
X114930000Y-67210000D03*
%TO.P,J2,39,Pin_13*%
%TO.N,unconnected-(J2-Pin_13-Pad39)*%
X114930000Y-69750000D03*
D14*
%TO.P,J2,EN,Pin_15*%
%TO.N,unconnected-(J2-Pin_15-PadEN)*%
X114930000Y-64670000D03*
D13*
%TO.P,J2,GND,Pin_2*%
%TO.N,GND*%
X114930000Y-97690000D03*
X140130000Y-97730000D03*
%TO.P,J2,VIN,3.3*%
%TO.N,Net-(J1-Pin_1)*%
X114930000Y-100230000D03*
%TD*%
D15*
%TO.N,Net-(J1-Pin_1)*%
X112300000Y-89380000D02*
X112300000Y-97600000D01*
X112300000Y-97600000D02*
X114930000Y-100230000D01*
X102790000Y-79870000D02*
X112300000Y-89380000D01*
%TO.N,Net-(J1-Pin_12)*%
X109330000Y-74980000D02*
X109330000Y-79390000D01*
X102790000Y-69710000D02*
X104300000Y-71220000D01*
X105570000Y-71220000D02*
X109330000Y-74980000D01*
X104300000Y-71220000D02*
X105570000Y-71220000D01*
X109330000Y-79390000D02*
X114930000Y-84990000D01*
%TD*%
%TA.AperFunction,Conductor*%
%TO.N,GND*%
G36*
X139534052Y-65887253D02*
G01*
X139601014Y-65907190D01*
X139646569Y-65960167D01*
X139656251Y-66029362D01*
X139626987Y-66092808D01*
X139589876Y-66121737D01*
X139474594Y-66180476D01*
X139427319Y-66214824D01*
X139315354Y-66296172D01*
X139315352Y-66296174D01*
X139315351Y-66296174D01*
X139176174Y-66435351D01*
X139176174Y-66435352D01*
X139176172Y-66435354D01*
X139156679Y-66462184D01*
X139060476Y-66594594D01*
X138971117Y-66769970D01*
X138910290Y-66957173D01*
X138879500Y-67151577D01*
X138879500Y-67348422D01*
X138910290Y-67542826D01*
X138971117Y-67730029D01*
X139040095Y-67865405D01*
X139060476Y-67905405D01*
X139176172Y-68064646D01*
X139315354Y-68203828D01*
X139474595Y-68319524D01*
X139588362Y-68377491D01*
X139651213Y-68409515D01*
X139702009Y-68457489D01*
X139718804Y-68525310D01*
X139696267Y-68591445D01*
X139651213Y-68630485D01*
X139474594Y-68720476D01*
X139443088Y-68743367D01*
X139315354Y-68836172D01*
X139315352Y-68836174D01*
X139315351Y-68836174D01*
X139176174Y-68975351D01*
X139176174Y-68975352D01*
X139176172Y-68975354D01*
X139156679Y-69002184D01*
X139060476Y-69134594D01*
X138971117Y-69309970D01*
X138910290Y-69497173D01*
X138879500Y-69691577D01*
X138879500Y-69888422D01*
X138910290Y-70082826D01*
X138971117Y-70270029D01*
X139040095Y-70405405D01*
X139060476Y-70445405D01*
X139176172Y-70604646D01*
X139315354Y-70743828D01*
X139474595Y-70859524D01*
X139588362Y-70917491D01*
X139651213Y-70949515D01*
X139702009Y-70997489D01*
X139718804Y-71065310D01*
X139696267Y-71131445D01*
X139651213Y-71170485D01*
X139474594Y-71260476D01*
X139419632Y-71300409D01*
X139315354Y-71376172D01*
X139315352Y-71376174D01*
X139315351Y-71376174D01*
X139176174Y-71515351D01*
X139176174Y-71515352D01*
X139176172Y-71515354D01*
X139156679Y-71542184D01*
X139060476Y-71674594D01*
X138971117Y-71849970D01*
X138910290Y-72037173D01*
X138879500Y-72231577D01*
X138879500Y-72428422D01*
X138910290Y-72622826D01*
X138971117Y-72810029D01*
X139040095Y-72945405D01*
X139060476Y-72985405D01*
X139176172Y-73144646D01*
X139315354Y-73283828D01*
X139474595Y-73399524D01*
X139588362Y-73457491D01*
X139651213Y-73489515D01*
X139702009Y-73537489D01*
X139718804Y-73605310D01*
X139696267Y-73671445D01*
X139651213Y-73710485D01*
X139474594Y-73800476D01*
X139389062Y-73862620D01*
X139315354Y-73916172D01*
X139315352Y-73916174D01*
X139315351Y-73916174D01*
X139176174Y-74055351D01*
X139176174Y-74055352D01*
X139176172Y-74055354D01*
X139156679Y-74082184D01*
X139060476Y-74214594D01*
X138971117Y-74389970D01*
X138910290Y-74577173D01*
X138879500Y-74771577D01*
X138879500Y-74968422D01*
X138910290Y-75162826D01*
X138971117Y-75350029D01*
X139040095Y-75485405D01*
X139060476Y-75525405D01*
X139176172Y-75684646D01*
X139315354Y-75823828D01*
X139474595Y-75939524D01*
X139588362Y-75997491D01*
X139651213Y-76029515D01*
X139702009Y-76077489D01*
X139718804Y-76145310D01*
X139696267Y-76211445D01*
X139651213Y-76250485D01*
X139474594Y-76340476D01*
X139439072Y-76366285D01*
X139315354Y-76456172D01*
X139315352Y-76456174D01*
X139315351Y-76456174D01*
X139176174Y-76595351D01*
X139176174Y-76595352D01*
X139176172Y-76595354D01*
X139156679Y-76622184D01*
X139060476Y-76754594D01*
X138971117Y-76929970D01*
X138910290Y-77117173D01*
X138879500Y-77311577D01*
X138879500Y-77508422D01*
X138910290Y-77702826D01*
X138971117Y-77890029D01*
X139040095Y-78025405D01*
X139060476Y-78065405D01*
X139176172Y-78224646D01*
X139315354Y-78363828D01*
X139474595Y-78479524D01*
X139588362Y-78537491D01*
X139651213Y-78569515D01*
X139702009Y-78617489D01*
X139718804Y-78685310D01*
X139696267Y-78751445D01*
X139651213Y-78790485D01*
X139474594Y-78880476D01*
X139383741Y-78946485D01*
X139315354Y-78996172D01*
X139315352Y-78996174D01*
X139315351Y-78996174D01*
X139176174Y-79135351D01*
X139176174Y-79135352D01*
X139176172Y-79135354D01*
X139156679Y-79162184D01*
X139060476Y-79294594D01*
X138971117Y-79469970D01*
X138910290Y-79657173D01*
X138879500Y-79851577D01*
X138879500Y-80048422D01*
X138910290Y-80242826D01*
X138971117Y-80430029D01*
X139040095Y-80565405D01*
X139060476Y-80605405D01*
X139176172Y-80764646D01*
X139315354Y-80903828D01*
X139474595Y-81019524D01*
X139588362Y-81077491D01*
X139651213Y-81109515D01*
X139702009Y-81157489D01*
X139718804Y-81225310D01*
X139696267Y-81291445D01*
X139651213Y-81330485D01*
X139474594Y-81420476D01*
X139383741Y-81486485D01*
X139315354Y-81536172D01*
X139315352Y-81536174D01*
X139315351Y-81536174D01*
X139176174Y-81675351D01*
X139176174Y-81675352D01*
X139176172Y-81675354D01*
X139156679Y-81702184D01*
X139060476Y-81834594D01*
X138971117Y-82009970D01*
X138910290Y-82197173D01*
X138879500Y-82391577D01*
X138879500Y-82588422D01*
X138910290Y-82782826D01*
X138971117Y-82970029D01*
X139004604Y-83035750D01*
X139060476Y-83145405D01*
X139176172Y-83304646D01*
X139315354Y-83443828D01*
X139474595Y-83559524D01*
X139588362Y-83617491D01*
X139651213Y-83649515D01*
X139702009Y-83697489D01*
X139718804Y-83765310D01*
X139696267Y-83831445D01*
X139651213Y-83870485D01*
X139474594Y-83960476D01*
X139383741Y-84026485D01*
X139315354Y-84076172D01*
X139315352Y-84076174D01*
X139315351Y-84076174D01*
X139176174Y-84215351D01*
X139176174Y-84215352D01*
X139176172Y-84215354D01*
X139156679Y-84242184D01*
X139060476Y-84374594D01*
X138971117Y-84549970D01*
X138910290Y-84737173D01*
X138879500Y-84931577D01*
X138879500Y-85128422D01*
X138910290Y-85322826D01*
X138971117Y-85510029D01*
X139040095Y-85645405D01*
X139060476Y-85685405D01*
X139176172Y-85844646D01*
X139315354Y-85983828D01*
X139474595Y-86099524D01*
X139588362Y-86157491D01*
X139651213Y-86189515D01*
X139702009Y-86237489D01*
X139718804Y-86305310D01*
X139696267Y-86371445D01*
X139651213Y-86410485D01*
X139474594Y-86500476D01*
X139383741Y-86566485D01*
X139315354Y-86616172D01*
X139315352Y-86616174D01*
X139315351Y-86616174D01*
X139176174Y-86755351D01*
X139176174Y-86755352D01*
X139176172Y-86755354D01*
X139156679Y-86782184D01*
X139060476Y-86914594D01*
X138971117Y-87089970D01*
X138910290Y-87277173D01*
X138879500Y-87471577D01*
X138879500Y-87668422D01*
X138910290Y-87862826D01*
X138971117Y-88050029D01*
X139040095Y-88185405D01*
X139060476Y-88225405D01*
X139176172Y-88384646D01*
X139315354Y-88523828D01*
X139474595Y-88639524D01*
X139588362Y-88697491D01*
X139651213Y-88729515D01*
X139702009Y-88777489D01*
X139718804Y-88845310D01*
X139696267Y-88911445D01*
X139651213Y-88950485D01*
X139474594Y-89040476D01*
X139436780Y-89067950D01*
X139315354Y-89156172D01*
X139315352Y-89156174D01*
X139315351Y-89156174D01*
X139176174Y-89295351D01*
X139176174Y-89295352D01*
X139176172Y-89295354D01*
X139156679Y-89322184D01*
X139060476Y-89454594D01*
X138971117Y-89629970D01*
X138910290Y-89817173D01*
X138879500Y-90011577D01*
X138879500Y-90208422D01*
X138910290Y-90402826D01*
X138971117Y-90590029D01*
X139040095Y-90725405D01*
X139060476Y-90765405D01*
X139176172Y-90924646D01*
X139315354Y-91063828D01*
X139474595Y-91179524D01*
X139597992Y-91242397D01*
X139651213Y-91269515D01*
X139702009Y-91317489D01*
X139718804Y-91385310D01*
X139696267Y-91451445D01*
X139651213Y-91490485D01*
X139474594Y-91580476D01*
X139383741Y-91646485D01*
X139315354Y-91696172D01*
X139315352Y-91696174D01*
X139315351Y-91696174D01*
X139176174Y-91835351D01*
X139176174Y-91835352D01*
X139176172Y-91835354D01*
X139156679Y-91862184D01*
X139060476Y-91994594D01*
X138971117Y-92169970D01*
X138910290Y-92357173D01*
X138879500Y-92551577D01*
X138879500Y-92748422D01*
X138910290Y-92942826D01*
X138971117Y-93130029D01*
X139040095Y-93265405D01*
X139060476Y-93305405D01*
X139176172Y-93464646D01*
X139315354Y-93603828D01*
X139474595Y-93719524D01*
X139597992Y-93782397D01*
X139651213Y-93809515D01*
X139702009Y-93857489D01*
X139718804Y-93925310D01*
X139696267Y-93991445D01*
X139651213Y-94030485D01*
X139474594Y-94120476D01*
X139383741Y-94186485D01*
X139315354Y-94236172D01*
X139315352Y-94236174D01*
X139315351Y-94236174D01*
X139176174Y-94375351D01*
X139176174Y-94375352D01*
X139176172Y-94375354D01*
X139146664Y-94415968D01*
X139060476Y-94534594D01*
X138971117Y-94709970D01*
X138910290Y-94897173D01*
X138879500Y-95091577D01*
X138879500Y-95288422D01*
X138910290Y-95482826D01*
X138971117Y-95670029D01*
X139040095Y-95805405D01*
X139060476Y-95845405D01*
X139176172Y-96004646D01*
X139315354Y-96143828D01*
X139434784Y-96230600D01*
X139474596Y-96259525D01*
X139651763Y-96349795D01*
X139702560Y-96397769D01*
X139719355Y-96465590D01*
X139696818Y-96531725D01*
X139651764Y-96570765D01*
X139474859Y-96660902D01*
X139439873Y-96686320D01*
X139439872Y-96686320D01*
X140041415Y-97287861D01*
X139956306Y-97310667D01*
X139853694Y-97369910D01*
X139769910Y-97453694D01*
X139710667Y-97556306D01*
X139687861Y-97641414D01*
X139086320Y-97039872D01*
X139086320Y-97039873D01*
X139060902Y-97074859D01*
X139060899Y-97074863D01*
X138971582Y-97250161D01*
X138910778Y-97437294D01*
X138880000Y-97631617D01*
X138880000Y-97828382D01*
X138910778Y-98022705D01*
X138971581Y-98209835D01*
X139060905Y-98385145D01*
X139086319Y-98420125D01*
X139086320Y-98420125D01*
X139687861Y-97818584D01*
X139710667Y-97903694D01*
X139769910Y-98006306D01*
X139853694Y-98090090D01*
X139956306Y-98149333D01*
X140041414Y-98172137D01*
X139439873Y-98773677D01*
X139439873Y-98773678D01*
X139474858Y-98799096D01*
X139651764Y-98889234D01*
X139702560Y-98937209D01*
X139719355Y-99005030D01*
X139696818Y-99071164D01*
X139651764Y-99110204D01*
X139474594Y-99200476D01*
X139429293Y-99233390D01*
X139315354Y-99316172D01*
X139315352Y-99316174D01*
X139315351Y-99316174D01*
X139176174Y-99455351D01*
X139176174Y-99455352D01*
X139176172Y-99455354D01*
X139143171Y-99500776D01*
X139060476Y-99614594D01*
X138971117Y-99789970D01*
X138910290Y-99977173D01*
X138879500Y-100171577D01*
X138879500Y-100368422D01*
X138910290Y-100562826D01*
X138971117Y-100750029D01*
X139020635Y-100847213D01*
X139060476Y-100925405D01*
X139176172Y-101084646D01*
X139315354Y-101223828D01*
X139474595Y-101339524D01*
X139557455Y-101381743D01*
X139649970Y-101428882D01*
X139649972Y-101428882D01*
X139649975Y-101428884D01*
X139750317Y-101461487D01*
X139837173Y-101489709D01*
X140031578Y-101520500D01*
X140031583Y-101520500D01*
X140228422Y-101520500D01*
X140422826Y-101489709D01*
X140451168Y-101480500D01*
X140610025Y-101428884D01*
X140785405Y-101339524D01*
X140944646Y-101223828D01*
X141083828Y-101084646D01*
X141199524Y-100925405D01*
X141288884Y-100750025D01*
X141349709Y-100562826D01*
X141359783Y-100499223D01*
X141380500Y-100368422D01*
X141380500Y-100171577D01*
X141349709Y-99977173D01*
X141288882Y-99789970D01*
X141199523Y-99614594D01*
X141170461Y-99574594D01*
X141083828Y-99455354D01*
X140944646Y-99316172D01*
X140785405Y-99200476D01*
X140610025Y-99111116D01*
X140610024Y-99111115D01*
X140608235Y-99110204D01*
X140557439Y-99062230D01*
X140540644Y-98994409D01*
X140563181Y-98928274D01*
X140608236Y-98889234D01*
X140785141Y-98799097D01*
X140820125Y-98773678D01*
X140820126Y-98773678D01*
X140218585Y-98172137D01*
X140303694Y-98149333D01*
X140406306Y-98090090D01*
X140490090Y-98006306D01*
X140549333Y-97903694D01*
X140572137Y-97818585D01*
X141173678Y-98420126D01*
X141173678Y-98420125D01*
X141199095Y-98385143D01*
X141288418Y-98209835D01*
X141349221Y-98022705D01*
X141380000Y-97828382D01*
X141380000Y-97631617D01*
X141349221Y-97437294D01*
X141288418Y-97250164D01*
X141199096Y-97074858D01*
X141173678Y-97039873D01*
X141173677Y-97039873D01*
X140572137Y-97641413D01*
X140549333Y-97556306D01*
X140490090Y-97453694D01*
X140406306Y-97369910D01*
X140303694Y-97310667D01*
X140218584Y-97287861D01*
X140820125Y-96686320D01*
X140820125Y-96686319D01*
X140785145Y-96660905D01*
X140608235Y-96570765D01*
X140557439Y-96522790D01*
X140540644Y-96454969D01*
X140563182Y-96388834D01*
X140608236Y-96349795D01*
X140610022Y-96348884D01*
X140610025Y-96348884D01*
X140785405Y-96259524D01*
X140944646Y-96143828D01*
X141083828Y-96004646D01*
X141199524Y-95845405D01*
X141288884Y-95670025D01*
X141349709Y-95482826D01*
X141360605Y-95414031D01*
X141380500Y-95288422D01*
X141380500Y-95091577D01*
X141349709Y-94897173D01*
X141305335Y-94760606D01*
X141288884Y-94709975D01*
X141288882Y-94709972D01*
X141288882Y-94709970D01*
X141238241Y-94610582D01*
X141199524Y-94534595D01*
X141083828Y-94375354D01*
X140944646Y-94236172D01*
X140865025Y-94178324D01*
X140785403Y-94120474D01*
X140608787Y-94030485D01*
X140557990Y-93982511D01*
X140541195Y-93914690D01*
X140563732Y-93848555D01*
X140608787Y-93809515D01*
X140774558Y-93725051D01*
X140785405Y-93719524D01*
X140944646Y-93603828D01*
X141083828Y-93464646D01*
X141199524Y-93305405D01*
X141288884Y-93130025D01*
X141349709Y-92942826D01*
X141358671Y-92886243D01*
X141380500Y-92748422D01*
X141380500Y-92551577D01*
X141349709Y-92357173D01*
X141321487Y-92270317D01*
X141288884Y-92169975D01*
X141288882Y-92169972D01*
X141288882Y-92169970D01*
X141199523Y-91994594D01*
X141170461Y-91954594D01*
X141083828Y-91835354D01*
X140944646Y-91696172D01*
X140865025Y-91638324D01*
X140785403Y-91580474D01*
X140608787Y-91490485D01*
X140557990Y-91442511D01*
X140541195Y-91374690D01*
X140563732Y-91308555D01*
X140608787Y-91269515D01*
X140785403Y-91179525D01*
X140785402Y-91179525D01*
X140785405Y-91179524D01*
X140944646Y-91063828D01*
X141083828Y-90924646D01*
X141199524Y-90765405D01*
X141288884Y-90590025D01*
X141349709Y-90402826D01*
X141358671Y-90346243D01*
X141380500Y-90208422D01*
X141380500Y-90011577D01*
X141349709Y-89817173D01*
X141321487Y-89730317D01*
X141288884Y-89629975D01*
X141288882Y-89629972D01*
X141288882Y-89629970D01*
X141228562Y-89511585D01*
X141199524Y-89454595D01*
X141083828Y-89295354D01*
X140944646Y-89156172D01*
X140823220Y-89067950D01*
X140785403Y-89040474D01*
X140608787Y-88950485D01*
X140557990Y-88902511D01*
X140541195Y-88834690D01*
X140563732Y-88768555D01*
X140608787Y-88729515D01*
X140785403Y-88639525D01*
X140785402Y-88639525D01*
X140785405Y-88639524D01*
X140944646Y-88523828D01*
X141083828Y-88384646D01*
X141199524Y-88225405D01*
X141288884Y-88050025D01*
X141349709Y-87862826D01*
X141358671Y-87806243D01*
X141380500Y-87668422D01*
X141380500Y-87471577D01*
X141349709Y-87277173D01*
X141321487Y-87190317D01*
X141288884Y-87089975D01*
X141288882Y-87089972D01*
X141288882Y-87089970D01*
X141199523Y-86914594D01*
X141170461Y-86874594D01*
X141083828Y-86755354D01*
X140944646Y-86616172D01*
X140865025Y-86558324D01*
X140785403Y-86500474D01*
X140608787Y-86410485D01*
X140557990Y-86362511D01*
X140541195Y-86294690D01*
X140563732Y-86228555D01*
X140608787Y-86189515D01*
X140785403Y-86099525D01*
X140785402Y-86099525D01*
X140785405Y-86099524D01*
X140944646Y-85983828D01*
X141083828Y-85844646D01*
X141199524Y-85685405D01*
X141288884Y-85510025D01*
X141349709Y-85322826D01*
X141358671Y-85266243D01*
X141380500Y-85128422D01*
X141380500Y-84931577D01*
X141349709Y-84737173D01*
X141317670Y-84638568D01*
X141288884Y-84549975D01*
X141288882Y-84549972D01*
X141288882Y-84549970D01*
X141199523Y-84374594D01*
X141170461Y-84334594D01*
X141083828Y-84215354D01*
X140944646Y-84076172D01*
X140865025Y-84018324D01*
X140785403Y-83960474D01*
X140608787Y-83870485D01*
X140557990Y-83822511D01*
X140541195Y-83754690D01*
X140563732Y-83688555D01*
X140608787Y-83649515D01*
X140785403Y-83559525D01*
X140785402Y-83559525D01*
X140785405Y-83559524D01*
X140944646Y-83443828D01*
X141083828Y-83304646D01*
X141199524Y-83145405D01*
X141288884Y-82970025D01*
X141349709Y-82782826D01*
X141358671Y-82726243D01*
X141380500Y-82588422D01*
X141380500Y-82391577D01*
X141349709Y-82197173D01*
X141288882Y-82009970D01*
X141199523Y-81834594D01*
X141170461Y-81794594D01*
X141083828Y-81675354D01*
X140944646Y-81536172D01*
X140865025Y-81478324D01*
X140785403Y-81420474D01*
X140608787Y-81330485D01*
X140557990Y-81282511D01*
X140541195Y-81214690D01*
X140563732Y-81148555D01*
X140608787Y-81109515D01*
X140785403Y-81019525D01*
X140785402Y-81019525D01*
X140785405Y-81019524D01*
X140944646Y-80903828D01*
X141083828Y-80764646D01*
X141199524Y-80605405D01*
X141288884Y-80430025D01*
X141349709Y-80242826D01*
X141358671Y-80186240D01*
X141380500Y-80048422D01*
X141380500Y-79851577D01*
X141349709Y-79657173D01*
X141321487Y-79570317D01*
X141288884Y-79469975D01*
X141288882Y-79469972D01*
X141288882Y-79469970D01*
X141228562Y-79351585D01*
X141199524Y-79294595D01*
X141083828Y-79135354D01*
X140944646Y-78996172D01*
X140865025Y-78938324D01*
X140785403Y-78880474D01*
X140608787Y-78790485D01*
X140557990Y-78742511D01*
X140541195Y-78674690D01*
X140563732Y-78608555D01*
X140608787Y-78569515D01*
X140785403Y-78479525D01*
X140785402Y-78479525D01*
X140785405Y-78479524D01*
X140944646Y-78363828D01*
X141083828Y-78224646D01*
X141199524Y-78065405D01*
X141288884Y-77890025D01*
X141349709Y-77702826D01*
X141358671Y-77646243D01*
X141380500Y-77508422D01*
X141380500Y-77311576D01*
X141373636Y-77268238D01*
X141371335Y-77253713D01*
X143749500Y-77253713D01*
X143749500Y-77466287D01*
X143782754Y-77676243D01*
X143839219Y-77850025D01*
X143848444Y-77878414D01*
X143944951Y-78067820D01*
X144069890Y-78239786D01*
X144220213Y-78390109D01*
X144392182Y-78515050D01*
X144400946Y-78519516D01*
X144451742Y-78567491D01*
X144468536Y-78635312D01*
X144445998Y-78701447D01*
X144400946Y-78740484D01*
X144392182Y-78744949D01*
X144220213Y-78869890D01*
X144069890Y-79020213D01*
X143944951Y-79192179D01*
X143848444Y-79381585D01*
X143782753Y-79583760D01*
X143749500Y-79793713D01*
X143749500Y-80006287D01*
X143782754Y-80216243D01*
X143839219Y-80390025D01*
X143848444Y-80418414D01*
X143944951Y-80607820D01*
X144069890Y-80779786D01*
X144220213Y-80930109D01*
X144392182Y-81055050D01*
X144400946Y-81059516D01*
X144451742Y-81107491D01*
X144468536Y-81175312D01*
X144445998Y-81241447D01*
X144400946Y-81280484D01*
X144392182Y-81284949D01*
X144220213Y-81409890D01*
X144069890Y-81560213D01*
X143944951Y-81732179D01*
X143848444Y-81921585D01*
X143782753Y-82123760D01*
X143749500Y-82333713D01*
X143749500Y-82546287D01*
X143749838Y-82548422D01*
X143777179Y-82721048D01*
X143782754Y-82756243D01*
X143839219Y-82930025D01*
X143848444Y-82958414D01*
X143944951Y-83147820D01*
X144069890Y-83319786D01*
X144220213Y-83470109D01*
X144392182Y-83595050D01*
X144400946Y-83599516D01*
X144451742Y-83647491D01*
X144468536Y-83715312D01*
X144445998Y-83781447D01*
X144400946Y-83820484D01*
X144392182Y-83824949D01*
X144220213Y-83949890D01*
X144069890Y-84100213D01*
X143944951Y-84272179D01*
X143848444Y-84461585D01*
X143782753Y-84663760D01*
X143749500Y-84873713D01*
X143749500Y-85086287D01*
X143782754Y-85296243D01*
X143839219Y-85470025D01*
X143848444Y-85498414D01*
X143944951Y-85687820D01*
X144069890Y-85859786D01*
X144220213Y-86010109D01*
X144392179Y-86135048D01*
X144392181Y-86135049D01*
X144392184Y-86135051D01*
X144581588Y-86231557D01*
X144783757Y-86297246D01*
X144993713Y-86330500D01*
X144993714Y-86330500D01*
X145206286Y-86330500D01*
X145206287Y-86330500D01*
X145416243Y-86297246D01*
X145618412Y-86231557D01*
X145807816Y-86135051D01*
X145856715Y-86099524D01*
X145979786Y-86010109D01*
X145979788Y-86010106D01*
X145979792Y-86010104D01*
X146130104Y-85859792D01*
X146130106Y-85859788D01*
X146130109Y-85859786D01*
X146255048Y-85687820D01*
X146255047Y-85687820D01*
X146255051Y-85687816D01*
X146351557Y-85498412D01*
X146417246Y-85296243D01*
X146450500Y-85086287D01*
X146450500Y-84873713D01*
X146417246Y-84663757D01*
X146351557Y-84461588D01*
X146255051Y-84272184D01*
X146255049Y-84272181D01*
X146255048Y-84272179D01*
X146130109Y-84100213D01*
X145979786Y-83949890D01*
X145807820Y-83824951D01*
X145803031Y-83822511D01*
X145799054Y-83820485D01*
X145748259Y-83772512D01*
X145731463Y-83704692D01*
X145753999Y-83638556D01*
X145799054Y-83599515D01*
X145807816Y-83595051D01*
X145856715Y-83559524D01*
X145979786Y-83470109D01*
X145979788Y-83470106D01*
X145979792Y-83470104D01*
X146130104Y-83319792D01*
X146130106Y-83319788D01*
X146130109Y-83319786D01*
X146255048Y-83147820D01*
X146255047Y-83147820D01*
X146255051Y-83147816D01*
X146351557Y-82958412D01*
X146417246Y-82756243D01*
X146450500Y-82546287D01*
X146450500Y-82333713D01*
X146417246Y-82123757D01*
X146351557Y-81921588D01*
X146255051Y-81732184D01*
X146255049Y-81732181D01*
X146255048Y-81732179D01*
X146130109Y-81560213D01*
X145979786Y-81409890D01*
X145807820Y-81284951D01*
X145803031Y-81282511D01*
X145799054Y-81280485D01*
X145748259Y-81232512D01*
X145731463Y-81164692D01*
X145753999Y-81098556D01*
X145799054Y-81059515D01*
X145807816Y-81055051D01*
X145856715Y-81019524D01*
X145979786Y-80930109D01*
X145979788Y-80930106D01*
X145979792Y-80930104D01*
X146130104Y-80779792D01*
X146130106Y-80779788D01*
X146130109Y-80779786D01*
X146255048Y-80607820D01*
X146255047Y-80607820D01*
X146255051Y-80607816D01*
X146351557Y-80418412D01*
X146417246Y-80216243D01*
X146450500Y-80006287D01*
X146450500Y-79793713D01*
X146417246Y-79583757D01*
X146351557Y-79381588D01*
X146255051Y-79192184D01*
X146255049Y-79192181D01*
X146255048Y-79192179D01*
X146130109Y-79020213D01*
X145979786Y-78869890D01*
X145807820Y-78744951D01*
X145803031Y-78742511D01*
X145799054Y-78740485D01*
X145748259Y-78692512D01*
X145731463Y-78624692D01*
X145753999Y-78558556D01*
X145799054Y-78519515D01*
X145807816Y-78515051D01*
X145856715Y-78479524D01*
X145979786Y-78390109D01*
X145979788Y-78390106D01*
X145979792Y-78390104D01*
X146130104Y-78239792D01*
X146130106Y-78239788D01*
X146130109Y-78239786D01*
X146255048Y-78067820D01*
X146255047Y-78067820D01*
X146255051Y-78067816D01*
X146351557Y-77878412D01*
X146417246Y-77676243D01*
X146450500Y-77466287D01*
X146450500Y-77253713D01*
X146417246Y-77043757D01*
X146351557Y-76841588D01*
X146255051Y-76652184D01*
X146255049Y-76652181D01*
X146255048Y-76652179D01*
X146130109Y-76480213D01*
X146016181Y-76366285D01*
X145982696Y-76304962D01*
X145987680Y-76235270D01*
X146029552Y-76179337D01*
X146060529Y-76162422D01*
X146192086Y-76113354D01*
X146192093Y-76113350D01*
X146307187Y-76027190D01*
X146307190Y-76027187D01*
X146393350Y-75912093D01*
X146393354Y-75912086D01*
X146443596Y-75777379D01*
X146443598Y-75777372D01*
X146449999Y-75717844D01*
X146450000Y-75717827D01*
X146450000Y-75070000D01*
X145533012Y-75070000D01*
X145565925Y-75012993D01*
X145600000Y-74885826D01*
X145600000Y-74754174D01*
X145565925Y-74627007D01*
X145533012Y-74570000D01*
X146450000Y-74570000D01*
X146450000Y-73922172D01*
X146449999Y-73922155D01*
X146443598Y-73862627D01*
X146443596Y-73862620D01*
X146393354Y-73727913D01*
X146393350Y-73727906D01*
X146307190Y-73612812D01*
X146307187Y-73612809D01*
X146192093Y-73526649D01*
X146192086Y-73526645D01*
X146057379Y-73476403D01*
X146057372Y-73476401D01*
X145997844Y-73470000D01*
X145350000Y-73470000D01*
X145350000Y-74386988D01*
X145292993Y-74354075D01*
X145165826Y-74320000D01*
X145034174Y-74320000D01*
X144907007Y-74354075D01*
X144850000Y-74386988D01*
X144850000Y-73470000D01*
X144202155Y-73470000D01*
X144142627Y-73476401D01*
X144142620Y-73476403D01*
X144007913Y-73526645D01*
X144007906Y-73526649D01*
X143892812Y-73612809D01*
X143892809Y-73612812D01*
X143806649Y-73727906D01*
X143806645Y-73727913D01*
X143756403Y-73862620D01*
X143756401Y-73862627D01*
X143750000Y-73922155D01*
X143750000Y-74570000D01*
X144666988Y-74570000D01*
X144634075Y-74627007D01*
X144600000Y-74754174D01*
X144600000Y-74885826D01*
X144634075Y-75012993D01*
X144666988Y-75070000D01*
X143750000Y-75070000D01*
X143750000Y-75717844D01*
X143756401Y-75777372D01*
X143756403Y-75777379D01*
X143806645Y-75912086D01*
X143806649Y-75912093D01*
X143892809Y-76027187D01*
X143892812Y-76027190D01*
X144007906Y-76113350D01*
X144007913Y-76113354D01*
X144139470Y-76162422D01*
X144195404Y-76204293D01*
X144219821Y-76269758D01*
X144204969Y-76338031D01*
X144183819Y-76366285D01*
X144069889Y-76480215D01*
X143944951Y-76652179D01*
X143848444Y-76841585D01*
X143782753Y-77043760D01*
X143749500Y-77253713D01*
X141371335Y-77253713D01*
X141349709Y-77117173D01*
X141321487Y-77030317D01*
X141288884Y-76929975D01*
X141288882Y-76929972D01*
X141288882Y-76929970D01*
X141199523Y-76754594D01*
X141170461Y-76714594D01*
X141083828Y-76595354D01*
X140944646Y-76456172D01*
X140820928Y-76366285D01*
X140785403Y-76340474D01*
X140608787Y-76250485D01*
X140557990Y-76202511D01*
X140541195Y-76134690D01*
X140563732Y-76068555D01*
X140608787Y-76029515D01*
X140785403Y-75939525D01*
X140785402Y-75939525D01*
X140785405Y-75939524D01*
X140944646Y-75823828D01*
X141083828Y-75684646D01*
X141199524Y-75525405D01*
X141288884Y-75350025D01*
X141349709Y-75162826D01*
X141358671Y-75106243D01*
X141380500Y-74968422D01*
X141380500Y-74771577D01*
X141349709Y-74577173D01*
X141321487Y-74490317D01*
X141288884Y-74389975D01*
X141288882Y-74389972D01*
X141288882Y-74389970D01*
X141199523Y-74214594D01*
X141170461Y-74174594D01*
X141083828Y-74055354D01*
X140944646Y-73916172D01*
X140865025Y-73858324D01*
X140785403Y-73800474D01*
X140608787Y-73710485D01*
X140557990Y-73662511D01*
X140541195Y-73594690D01*
X140563732Y-73528555D01*
X140608787Y-73489515D01*
X140785403Y-73399525D01*
X140785402Y-73399525D01*
X140785405Y-73399524D01*
X140944646Y-73283828D01*
X141083828Y-73144646D01*
X141199524Y-72985405D01*
X141288884Y-72810025D01*
X141349709Y-72622826D01*
X141358671Y-72566243D01*
X141380500Y-72428422D01*
X141380500Y-72231577D01*
X141349709Y-72037173D01*
X141298360Y-71879140D01*
X141288884Y-71849975D01*
X141288882Y-71849972D01*
X141288882Y-71849970D01*
X141199523Y-71674594D01*
X141170461Y-71634594D01*
X141083828Y-71515354D01*
X140944646Y-71376172D01*
X140840368Y-71300409D01*
X140785403Y-71260474D01*
X140608787Y-71170485D01*
X140557990Y-71122511D01*
X140541195Y-71054690D01*
X140563732Y-70988555D01*
X140608787Y-70949515D01*
X140785403Y-70859525D01*
X140785402Y-70859525D01*
X140785405Y-70859524D01*
X140944646Y-70743828D01*
X141083828Y-70604646D01*
X141199524Y-70445405D01*
X141288884Y-70270025D01*
X141349709Y-70082826D01*
X141358671Y-70026240D01*
X141380500Y-69888422D01*
X141380500Y-69691577D01*
X141349709Y-69497173D01*
X141321487Y-69410317D01*
X141288884Y-69309975D01*
X141288882Y-69309972D01*
X141288882Y-69309970D01*
X141199523Y-69134594D01*
X141170461Y-69094594D01*
X141083828Y-68975354D01*
X140944646Y-68836172D01*
X140798507Y-68729995D01*
X140785403Y-68720474D01*
X140608787Y-68630485D01*
X140557990Y-68582511D01*
X140541195Y-68514690D01*
X140563732Y-68448555D01*
X140608787Y-68409515D01*
X140785403Y-68319525D01*
X140785402Y-68319525D01*
X140785405Y-68319524D01*
X140944646Y-68203828D01*
X141083828Y-68064646D01*
X141199524Y-67905405D01*
X141288884Y-67730025D01*
X141349709Y-67542826D01*
X141358671Y-67486243D01*
X141380500Y-67348422D01*
X141380500Y-67151577D01*
X141349709Y-66957173D01*
X141321487Y-66870317D01*
X141288884Y-66769975D01*
X141288882Y-66769972D01*
X141288882Y-66769970D01*
X141199523Y-66594594D01*
X141170461Y-66554594D01*
X141083828Y-66435354D01*
X140944646Y-66296172D01*
X140785405Y-66180476D01*
X140679027Y-66126274D01*
X140628231Y-66078300D01*
X140611436Y-66010479D01*
X140633973Y-65944344D01*
X140688688Y-65900892D01*
X140735785Y-65891790D01*
X147201455Y-65916201D01*
X147268420Y-65936138D01*
X147313975Y-65989115D01*
X147324987Y-66040341D01*
X147283491Y-102473484D01*
X147263730Y-102540501D01*
X147210874Y-102586196D01*
X147159726Y-102597343D01*
X119692282Y-102649500D01*
X101912523Y-102649500D01*
X101845484Y-102629815D01*
X101799729Y-102577011D01*
X101788524Y-102526062D01*
X101782118Y-101112284D01*
X101776229Y-99812648D01*
X105149506Y-99812648D01*
X105149506Y-100017351D01*
X105181528Y-100219534D01*
X105244787Y-100414223D01*
X105337721Y-100596613D01*
X105458034Y-100762213D01*
X105602792Y-100906971D01*
X105719780Y-100991966D01*
X105768396Y-101027287D01*
X105880969Y-101084646D01*
X105950782Y-101120218D01*
X105950784Y-101120218D01*
X105950787Y-101120220D01*
X106055143Y-101154127D01*
X106145471Y-101183477D01*
X106246563Y-101199488D01*
X106347654Y-101215500D01*
X106347655Y-101215500D01*
X106552357Y-101215500D01*
X106552358Y-101215500D01*
X106754540Y-101183477D01*
X106949225Y-101120220D01*
X107131616Y-101027287D01*
X107271846Y-100925405D01*
X107297219Y-100906971D01*
X107297221Y-100906968D01*
X107297225Y-100906966D01*
X107441972Y-100762219D01*
X107441974Y-100762215D01*
X107441977Y-100762213D01*
X107500537Y-100681610D01*
X107562293Y-100596610D01*
X107655226Y-100414219D01*
X107718483Y-100219534D01*
X107750506Y-100017352D01*
X107750506Y-99897648D01*
X108299500Y-99897648D01*
X108299500Y-100102351D01*
X108331522Y-100304534D01*
X108394781Y-100499223D01*
X108487715Y-100681613D01*
X108608028Y-100847213D01*
X108752786Y-100991971D01*
X108880345Y-101084646D01*
X108918390Y-101112287D01*
X109034607Y-101171503D01*
X109100776Y-101205218D01*
X109100778Y-101205218D01*
X109100781Y-101205220D01*
X109158051Y-101223828D01*
X109295465Y-101268477D01*
X109396557Y-101284488D01*
X109497648Y-101300500D01*
X109497649Y-101300500D01*
X109702351Y-101300500D01*
X109702352Y-101300500D01*
X109904534Y-101268477D01*
X110099219Y-101205220D01*
X110281610Y-101112287D01*
X110374711Y-101044646D01*
X110447213Y-100991971D01*
X110447215Y-100991968D01*
X110447219Y-100991966D01*
X110591966Y-100847219D01*
X110591968Y-100847215D01*
X110591971Y-100847213D01*
X110662581Y-100750025D01*
X110712287Y-100681610D01*
X110805220Y-100499219D01*
X110868477Y-100304534D01*
X110900500Y-100102352D01*
X110900500Y-99897648D01*
X110868477Y-99695466D01*
X110840858Y-99610465D01*
X110805218Y-99500776D01*
X110761691Y-99415351D01*
X110712287Y-99318390D01*
X110681614Y-99276172D01*
X110591971Y-99152786D01*
X110447213Y-99008028D01*
X110281613Y-98887715D01*
X110281612Y-98887714D01*
X110281610Y-98887713D01*
X110206091Y-98849234D01*
X110099223Y-98794781D01*
X109904534Y-98731522D01*
X109729995Y-98703878D01*
X109702352Y-98699500D01*
X109497648Y-98699500D01*
X109473329Y-98703351D01*
X109295465Y-98731522D01*
X109100776Y-98794781D01*
X108918386Y-98887715D01*
X108752786Y-99008028D01*
X108608028Y-99152786D01*
X108487715Y-99318386D01*
X108394781Y-99500776D01*
X108331522Y-99695465D01*
X108299500Y-99897648D01*
X107750506Y-99897648D01*
X107750506Y-99812648D01*
X107718483Y-99610466D01*
X107706827Y-99574594D01*
X107682844Y-99500781D01*
X107655226Y-99415781D01*
X107655224Y-99415778D01*
X107655224Y-99415776D01*
X107621509Y-99349607D01*
X107562293Y-99233390D01*
X107538380Y-99200476D01*
X107441977Y-99067786D01*
X107297219Y-98923028D01*
X107131619Y-98802715D01*
X107131618Y-98802714D01*
X107131616Y-98802713D01*
X107046015Y-98759097D01*
X106949229Y-98709781D01*
X106754540Y-98646522D01*
X106580001Y-98618878D01*
X106552358Y-98614500D01*
X106347654Y-98614500D01*
X106323335Y-98618351D01*
X106145471Y-98646522D01*
X105950782Y-98709781D01*
X105768392Y-98802715D01*
X105602792Y-98923028D01*
X105458034Y-99067786D01*
X105337721Y-99233386D01*
X105244787Y-99415776D01*
X105181528Y-99610465D01*
X105149506Y-99812648D01*
X101776229Y-99812648D01*
X101773113Y-99125059D01*
X101792494Y-99057933D01*
X101845090Y-99011939D01*
X101897107Y-99000499D01*
X103687872Y-99000499D01*
X103747483Y-98994091D01*
X103882331Y-98943796D01*
X103997546Y-98857546D01*
X104083796Y-98742331D01*
X104134091Y-98607483D01*
X104140500Y-98547873D01*
X104140499Y-96752128D01*
X104134091Y-96692517D01*
X104131779Y-96686319D01*
X104083797Y-96557671D01*
X104083793Y-96557664D01*
X103997547Y-96442455D01*
X103997544Y-96442452D01*
X103882335Y-96356206D01*
X103882328Y-96356202D01*
X103747482Y-96305908D01*
X103747483Y-96305908D01*
X103687883Y-96299501D01*
X103687881Y-96299500D01*
X103687873Y-96299500D01*
X103687865Y-96299500D01*
X103677309Y-96299500D01*
X103610270Y-96279815D01*
X103589628Y-96263181D01*
X102919409Y-95592962D01*
X102982993Y-95575925D01*
X103097007Y-95510099D01*
X103190099Y-95417007D01*
X103255925Y-95302993D01*
X103272962Y-95239408D01*
X103905270Y-95871717D01*
X103905270Y-95871716D01*
X103944622Y-95817554D01*
X104041095Y-95628217D01*
X104106757Y-95426130D01*
X104106757Y-95426127D01*
X104140000Y-95216246D01*
X104140000Y-95003753D01*
X104112039Y-94827214D01*
X104109737Y-94812682D01*
X105150006Y-94812682D01*
X105150006Y-95017317D01*
X105182015Y-95219417D01*
X105245250Y-95414031D01*
X105338147Y-95596350D01*
X105338153Y-95596359D01*
X105370529Y-95640921D01*
X105370530Y-95640922D01*
X106050006Y-94961446D01*
X106050006Y-94967661D01*
X106077265Y-95069394D01*
X106129926Y-95160606D01*
X106204400Y-95235080D01*
X106295612Y-95287741D01*
X106397345Y-95315000D01*
X106403559Y-95315000D01*
X105724082Y-95994474D01*
X105768656Y-96026859D01*
X105950974Y-96119755D01*
X106145588Y-96182990D01*
X106347689Y-96215000D01*
X106552323Y-96215000D01*
X106754423Y-96182990D01*
X106949037Y-96119755D01*
X107131355Y-96026859D01*
X107175927Y-95994474D01*
X107175927Y-95994473D01*
X106496453Y-95315000D01*
X106502667Y-95315000D01*
X106604400Y-95287741D01*
X106695612Y-95235080D01*
X106770086Y-95160606D01*
X106822747Y-95069394D01*
X106850006Y-94967661D01*
X106850006Y-94961448D01*
X107529480Y-95640922D01*
X107529480Y-95640921D01*
X107561865Y-95596349D01*
X107654761Y-95414031D01*
X107717996Y-95219417D01*
X107750006Y-95017317D01*
X107750006Y-94897682D01*
X108300000Y-94897682D01*
X108300000Y-95102317D01*
X108332009Y-95304417D01*
X108395244Y-95499031D01*
X108488141Y-95681350D01*
X108488147Y-95681359D01*
X108520523Y-95725921D01*
X108520524Y-95725922D01*
X109200000Y-95046446D01*
X109200000Y-95052661D01*
X109227259Y-95154394D01*
X109279920Y-95245606D01*
X109354394Y-95320080D01*
X109445606Y-95372741D01*
X109547339Y-95400000D01*
X109553553Y-95400000D01*
X108874076Y-96079474D01*
X108918650Y-96111859D01*
X109100968Y-96204755D01*
X109295582Y-96267990D01*
X109497683Y-96300000D01*
X109702317Y-96300000D01*
X109904417Y-96267990D01*
X110099031Y-96204755D01*
X110281349Y-96111859D01*
X110325921Y-96079474D01*
X109646447Y-95400000D01*
X109652661Y-95400000D01*
X109754394Y-95372741D01*
X109845606Y-95320080D01*
X109920080Y-95245606D01*
X109972741Y-95154394D01*
X110000000Y-95052661D01*
X110000000Y-95046447D01*
X110679474Y-95725921D01*
X110711859Y-95681349D01*
X110804755Y-95499031D01*
X110867990Y-95304417D01*
X110900000Y-95102317D01*
X110900000Y-94897682D01*
X110867990Y-94695582D01*
X110804755Y-94500968D01*
X110711859Y-94318650D01*
X110679474Y-94274077D01*
X110679474Y-94274076D01*
X110000000Y-94953551D01*
X110000000Y-94947339D01*
X109972741Y-94845606D01*
X109920080Y-94754394D01*
X109845606Y-94679920D01*
X109754394Y-94627259D01*
X109652661Y-94600000D01*
X109646446Y-94600000D01*
X110325922Y-93920524D01*
X110325921Y-93920523D01*
X110281359Y-93888147D01*
X110281350Y-93888141D01*
X110099031Y-93795244D01*
X109904417Y-93732009D01*
X109702317Y-93700000D01*
X109497683Y-93700000D01*
X109295582Y-93732009D01*
X109100968Y-93795244D01*
X108918644Y-93888143D01*
X108874077Y-93920523D01*
X108874077Y-93920524D01*
X109553554Y-94600000D01*
X109547339Y-94600000D01*
X109445606Y-94627259D01*
X109354394Y-94679920D01*
X109279920Y-94754394D01*
X109227259Y-94845606D01*
X109200000Y-94947339D01*
X109200000Y-94953553D01*
X108520524Y-94274077D01*
X108520523Y-94274077D01*
X108488143Y-94318644D01*
X108395244Y-94500968D01*
X108332009Y-94695582D01*
X108300000Y-94897682D01*
X107750006Y-94897682D01*
X107750006Y-94812682D01*
X107717996Y-94610582D01*
X107654761Y-94415968D01*
X107561865Y-94233650D01*
X107529480Y-94189077D01*
X107529480Y-94189076D01*
X106850006Y-94868551D01*
X106850006Y-94862339D01*
X106822747Y-94760606D01*
X106770086Y-94669394D01*
X106695612Y-94594920D01*
X106604400Y-94542259D01*
X106502667Y-94515000D01*
X106496452Y-94515000D01*
X107131351Y-93880102D01*
X107175928Y-93835524D01*
X107175927Y-93835523D01*
X107131365Y-93803147D01*
X107131356Y-93803141D01*
X106949037Y-93710244D01*
X106754423Y-93647009D01*
X106552323Y-93615000D01*
X106347689Y-93615000D01*
X106145588Y-93647009D01*
X105950974Y-93710244D01*
X105768650Y-93803143D01*
X105724083Y-93835523D01*
X105724083Y-93835524D01*
X106403560Y-94515000D01*
X106397345Y-94515000D01*
X106295612Y-94542259D01*
X106204400Y-94594920D01*
X106129926Y-94669394D01*
X106077265Y-94760606D01*
X106050006Y-94862339D01*
X106050006Y-94868553D01*
X105370530Y-94189077D01*
X105370529Y-94189077D01*
X105338149Y-94233644D01*
X105245250Y-94415968D01*
X105182015Y-94610582D01*
X105150006Y-94812682D01*
X104109737Y-94812682D01*
X104106757Y-94793870D01*
X104106757Y-94793869D01*
X104041095Y-94591782D01*
X103944624Y-94402449D01*
X103905270Y-94348282D01*
X103905269Y-94348282D01*
X103272962Y-94980590D01*
X103255925Y-94917007D01*
X103190099Y-94802993D01*
X103097007Y-94709901D01*
X102982993Y-94644075D01*
X102919407Y-94627036D01*
X103551716Y-93994728D01*
X103537757Y-93984586D01*
X103476049Y-93943477D01*
X103458061Y-93922013D01*
X103437706Y-93902788D01*
X103435926Y-93895601D01*
X103431170Y-93889926D01*
X103427642Y-93862145D01*
X103420912Y-93834966D01*
X103423300Y-93827957D01*
X103422368Y-93820613D01*
X103434416Y-93795339D01*
X103443451Y-93768832D01*
X103449590Y-93763512D01*
X103452436Y-93757544D01*
X103466630Y-93748749D01*
X103488508Y-93729793D01*
X103497816Y-93725051D01*
X103577007Y-93667515D01*
X103669786Y-93600109D01*
X103669788Y-93600106D01*
X103669792Y-93600104D01*
X103820104Y-93449792D01*
X103820106Y-93449788D01*
X103820109Y-93449786D01*
X103945048Y-93277820D01*
X103945047Y-93277820D01*
X103945051Y-93277816D01*
X104041557Y-93088412D01*
X104107246Y-92886243D01*
X104140500Y-92676287D01*
X104140500Y-92463713D01*
X104107246Y-92253757D01*
X104041557Y-92051588D01*
X103945051Y-91862184D01*
X103945049Y-91862181D01*
X103945048Y-91862179D01*
X103820109Y-91690213D01*
X103669786Y-91539890D01*
X103497820Y-91414951D01*
X103497115Y-91414591D01*
X103489054Y-91410485D01*
X103438259Y-91362512D01*
X103421463Y-91294692D01*
X103443999Y-91228556D01*
X103489054Y-91189515D01*
X103497816Y-91185051D01*
X103560479Y-91139524D01*
X103669786Y-91060109D01*
X103669788Y-91060106D01*
X103669792Y-91060104D01*
X103820104Y-90909792D01*
X103820106Y-90909788D01*
X103820109Y-90909786D01*
X103945048Y-90737820D01*
X103945047Y-90737820D01*
X103945051Y-90737816D01*
X104041557Y-90548412D01*
X104107246Y-90346243D01*
X104140500Y-90136287D01*
X104140500Y-89923713D01*
X104107246Y-89713757D01*
X104041557Y-89511588D01*
X103945051Y-89322184D01*
X103945049Y-89322181D01*
X103945048Y-89322179D01*
X103820109Y-89150213D01*
X103669786Y-88999890D01*
X103497820Y-88874951D01*
X103497115Y-88874591D01*
X103489054Y-88870485D01*
X103438259Y-88822512D01*
X103421463Y-88754692D01*
X103443999Y-88688556D01*
X103489054Y-88649515D01*
X103497816Y-88645051D01*
X103560479Y-88599524D01*
X103669786Y-88520109D01*
X103669788Y-88520106D01*
X103669792Y-88520104D01*
X103820104Y-88369792D01*
X103820106Y-88369788D01*
X103820109Y-88369786D01*
X103945048Y-88197820D01*
X103945047Y-88197820D01*
X103945051Y-88197816D01*
X104041557Y-88008412D01*
X104107246Y-87806243D01*
X104140500Y-87596287D01*
X104140500Y-87383713D01*
X104107246Y-87173757D01*
X104041557Y-86971588D01*
X103945051Y-86782184D01*
X103945049Y-86782181D01*
X103945048Y-86782179D01*
X103820109Y-86610213D01*
X103669786Y-86459890D01*
X103497820Y-86334951D01*
X103497115Y-86334591D01*
X103489054Y-86330485D01*
X103438259Y-86282512D01*
X103421463Y-86214692D01*
X103443999Y-86148556D01*
X103489054Y-86109515D01*
X103497816Y-86105051D01*
X103560479Y-86059524D01*
X103669786Y-85980109D01*
X103669788Y-85980106D01*
X103669792Y-85980104D01*
X103820104Y-85829792D01*
X103820106Y-85829788D01*
X103820109Y-85829786D01*
X103945048Y-85657820D01*
X103945047Y-85657820D01*
X103945051Y-85657816D01*
X104041557Y-85468412D01*
X104107246Y-85266243D01*
X104140500Y-85056287D01*
X104140500Y-84843713D01*
X104107246Y-84633757D01*
X104041557Y-84431588D01*
X103945051Y-84242184D01*
X103945049Y-84242181D01*
X103945048Y-84242179D01*
X103820109Y-84070213D01*
X103669786Y-83919890D01*
X103497820Y-83794951D01*
X103497115Y-83794591D01*
X103489054Y-83790485D01*
X103438259Y-83742512D01*
X103421463Y-83674692D01*
X103443999Y-83608556D01*
X103489054Y-83569515D01*
X103497816Y-83565051D01*
X103560479Y-83519524D01*
X103669786Y-83440109D01*
X103669788Y-83440106D01*
X103669792Y-83440104D01*
X103820104Y-83289792D01*
X103820106Y-83289788D01*
X103820109Y-83289786D01*
X103945048Y-83117820D01*
X103945047Y-83117820D01*
X103945051Y-83117816D01*
X104041557Y-82928412D01*
X104107246Y-82726243D01*
X104140500Y-82516287D01*
X104140500Y-82369097D01*
X104160185Y-82302058D01*
X104212989Y-82256303D01*
X104282147Y-82246359D01*
X104345703Y-82275384D01*
X104352181Y-82281416D01*
X111663181Y-89592416D01*
X111696666Y-89653739D01*
X111699500Y-89680097D01*
X111699500Y-97513330D01*
X111699499Y-97513348D01*
X111699499Y-97679054D01*
X111699498Y-97679054D01*
X111740423Y-97831785D01*
X111769358Y-97881900D01*
X111769359Y-97881904D01*
X111769360Y-97881904D01*
X111815399Y-97961648D01*
X111819479Y-97968714D01*
X111819481Y-97968717D01*
X111938349Y-98087585D01*
X111938355Y-98087590D01*
X113676231Y-99825466D01*
X113709716Y-99886789D01*
X113711023Y-99932544D01*
X113679500Y-100131576D01*
X113679500Y-100328422D01*
X113710290Y-100522826D01*
X113771117Y-100710029D01*
X113841016Y-100847213D01*
X113860476Y-100885405D01*
X113976172Y-101044646D01*
X114115354Y-101183828D01*
X114274595Y-101299524D01*
X114276511Y-101300500D01*
X114449970Y-101388882D01*
X114449972Y-101388882D01*
X114449975Y-101388884D01*
X114550317Y-101421487D01*
X114637173Y-101449709D01*
X114831578Y-101480500D01*
X114831583Y-101480500D01*
X115028422Y-101480500D01*
X115222826Y-101449709D01*
X115286918Y-101428884D01*
X115410025Y-101388884D01*
X115585405Y-101299524D01*
X115744646Y-101183828D01*
X115883828Y-101044646D01*
X115999524Y-100885405D01*
X116088884Y-100710025D01*
X116149709Y-100522826D01*
X116166910Y-100414223D01*
X116180500Y-100328422D01*
X116180500Y-100131577D01*
X116149709Y-99937173D01*
X116088882Y-99749970D01*
X116017801Y-99610466D01*
X115999524Y-99574595D01*
X115883828Y-99415354D01*
X115744646Y-99276172D01*
X115585405Y-99160476D01*
X115410025Y-99071116D01*
X115410024Y-99071115D01*
X115408235Y-99070204D01*
X115357439Y-99022230D01*
X115340644Y-98954409D01*
X115363181Y-98888274D01*
X115408236Y-98849234D01*
X115585141Y-98759097D01*
X115620125Y-98733678D01*
X115620126Y-98733678D01*
X115018584Y-98132138D01*
X115103694Y-98109333D01*
X115206306Y-98050090D01*
X115290090Y-97966306D01*
X115349333Y-97863694D01*
X115372137Y-97778585D01*
X115973678Y-98380126D01*
X115973678Y-98380125D01*
X115999095Y-98345143D01*
X116088418Y-98169835D01*
X116149221Y-97982705D01*
X116180000Y-97788382D01*
X116180000Y-97591617D01*
X116149221Y-97397294D01*
X116088418Y-97210164D01*
X115999096Y-97034858D01*
X115973678Y-96999873D01*
X115973677Y-96999873D01*
X115372137Y-97601413D01*
X115349333Y-97516306D01*
X115290090Y-97413694D01*
X115206306Y-97329910D01*
X115103694Y-97270667D01*
X115018584Y-97247861D01*
X115620125Y-96646320D01*
X115620125Y-96646319D01*
X115585145Y-96620905D01*
X115408235Y-96530765D01*
X115357439Y-96482790D01*
X115340644Y-96414969D01*
X115363182Y-96348834D01*
X115408236Y-96309795D01*
X115410022Y-96308884D01*
X115410025Y-96308884D01*
X115585405Y-96219524D01*
X115744646Y-96103828D01*
X115883828Y-95964646D01*
X115999524Y-95805405D01*
X116088884Y-95630025D01*
X116149709Y-95442826D01*
X116156492Y-95400000D01*
X116180500Y-95248422D01*
X116180500Y-95051577D01*
X116149709Y-94857173D01*
X116118332Y-94760606D01*
X116088884Y-94669975D01*
X116088882Y-94669972D01*
X116088882Y-94669970D01*
X116019904Y-94534594D01*
X115999524Y-94494595D01*
X115883828Y-94335354D01*
X115744646Y-94196172D01*
X115640457Y-94120474D01*
X115585403Y-94080474D01*
X115408787Y-93990485D01*
X115357990Y-93942511D01*
X115341195Y-93874690D01*
X115363732Y-93808555D01*
X115408787Y-93769515D01*
X115585403Y-93679525D01*
X115585402Y-93679525D01*
X115585405Y-93679524D01*
X115744646Y-93563828D01*
X115883828Y-93424646D01*
X115999524Y-93265405D01*
X116088884Y-93090025D01*
X116149709Y-92902826D01*
X116180500Y-92708422D01*
X116180500Y-92511577D01*
X116149709Y-92317173D01*
X116088882Y-92129970D01*
X115999523Y-91954594D01*
X115883828Y-91795354D01*
X115744646Y-91656172D01*
X115640457Y-91580474D01*
X115585403Y-91540474D01*
X115408787Y-91450485D01*
X115357990Y-91402511D01*
X115341195Y-91334690D01*
X115363732Y-91268555D01*
X115408787Y-91229515D01*
X115585403Y-91139525D01*
X115585402Y-91139525D01*
X115585405Y-91139524D01*
X115744646Y-91023828D01*
X115883828Y-90884646D01*
X115999524Y-90725405D01*
X116088884Y-90550025D01*
X116149709Y-90362826D01*
X116180500Y-90168422D01*
X116180500Y-89971577D01*
X116149709Y-89777173D01*
X116088882Y-89589970D01*
X116041743Y-89497455D01*
X115999524Y-89414595D01*
X115883828Y-89255354D01*
X115744646Y-89116172D01*
X115640457Y-89040474D01*
X115585403Y-89000474D01*
X115408787Y-88910485D01*
X115357990Y-88862511D01*
X115341195Y-88794690D01*
X115363732Y-88728555D01*
X115408787Y-88689515D01*
X115585403Y-88599525D01*
X115585402Y-88599525D01*
X115585405Y-88599524D01*
X115744646Y-88483828D01*
X115883828Y-88344646D01*
X115999524Y-88185405D01*
X116088884Y-88010025D01*
X116149709Y-87822826D01*
X116180500Y-87628422D01*
X116180500Y-87431577D01*
X116149709Y-87237173D01*
X116088882Y-87049970D01*
X115999523Y-86874594D01*
X115883828Y-86715354D01*
X115744646Y-86576172D01*
X115599165Y-86470473D01*
X115585403Y-86460474D01*
X115408787Y-86370485D01*
X115357990Y-86322511D01*
X115341195Y-86254690D01*
X115363732Y-86188555D01*
X115408787Y-86149515D01*
X115585403Y-86059525D01*
X115585402Y-86059525D01*
X115585405Y-86059524D01*
X115744646Y-85943828D01*
X115883828Y-85804646D01*
X115999524Y-85645405D01*
X116088884Y-85470025D01*
X116149709Y-85282826D01*
X116180500Y-85088422D01*
X116180500Y-84891577D01*
X116149709Y-84697173D01*
X116088882Y-84509970D01*
X115999523Y-84334594D01*
X115883828Y-84175354D01*
X115744646Y-84036172D01*
X115640457Y-83960474D01*
X115585403Y-83920474D01*
X115408787Y-83830485D01*
X115357990Y-83782511D01*
X115341195Y-83714690D01*
X115363732Y-83648555D01*
X115408787Y-83609515D01*
X115585403Y-83519525D01*
X115585402Y-83519525D01*
X115585405Y-83519524D01*
X115744646Y-83403828D01*
X115883828Y-83264646D01*
X115999524Y-83105405D01*
X116088884Y-82930025D01*
X116149709Y-82742826D01*
X116180500Y-82548422D01*
X116180500Y-82351577D01*
X116149709Y-82157173D01*
X116088882Y-81969970D01*
X115999523Y-81794594D01*
X115883828Y-81635354D01*
X115744646Y-81496172D01*
X115639212Y-81419569D01*
X115585403Y-81380474D01*
X115408787Y-81290485D01*
X115357990Y-81242511D01*
X115341195Y-81174690D01*
X115363732Y-81108555D01*
X115408787Y-81069515D01*
X115585403Y-80979525D01*
X115585402Y-80979525D01*
X115585405Y-80979524D01*
X115744646Y-80863828D01*
X115883828Y-80724646D01*
X115999524Y-80565405D01*
X116088884Y-80390025D01*
X116149709Y-80202826D01*
X116180500Y-80008422D01*
X116180500Y-79811577D01*
X116149709Y-79617173D01*
X116101879Y-79469970D01*
X116088884Y-79429975D01*
X116088882Y-79429972D01*
X116088882Y-79429970D01*
X116041743Y-79337455D01*
X115999524Y-79254595D01*
X115883828Y-79095354D01*
X115744646Y-78956172D01*
X115654978Y-78891024D01*
X115585403Y-78840474D01*
X115408787Y-78750485D01*
X115357990Y-78702511D01*
X115341195Y-78634690D01*
X115363732Y-78568555D01*
X115408787Y-78529515D01*
X115585403Y-78439525D01*
X115585402Y-78439525D01*
X115585405Y-78439524D01*
X115744646Y-78323828D01*
X115883828Y-78184646D01*
X115999524Y-78025405D01*
X116088884Y-77850025D01*
X116149709Y-77662826D01*
X116180500Y-77468422D01*
X116180500Y-77271577D01*
X116149709Y-77077173D01*
X116088882Y-76889970D01*
X115999523Y-76714594D01*
X115883828Y-76555354D01*
X115744646Y-76416172D01*
X115606253Y-76315623D01*
X115585403Y-76300474D01*
X115408787Y-76210485D01*
X115357990Y-76162511D01*
X115341195Y-76094690D01*
X115363732Y-76028555D01*
X115408787Y-75989515D01*
X115585403Y-75899525D01*
X115585402Y-75899525D01*
X115585405Y-75899524D01*
X115744646Y-75783828D01*
X115883828Y-75644646D01*
X115999524Y-75485405D01*
X116088884Y-75310025D01*
X116149709Y-75122826D01*
X116180500Y-74928422D01*
X116180500Y-74731577D01*
X116149709Y-74537173D01*
X116088882Y-74349970D01*
X115999523Y-74174594D01*
X115883828Y-74015354D01*
X115744646Y-73876172D01*
X115640457Y-73800474D01*
X115585403Y-73760474D01*
X115408787Y-73670485D01*
X115357990Y-73622511D01*
X115341195Y-73554690D01*
X115363732Y-73488555D01*
X115408787Y-73449515D01*
X115585403Y-73359525D01*
X115585402Y-73359525D01*
X115585405Y-73359524D01*
X115744646Y-73243828D01*
X115883828Y-73104646D01*
X115999524Y-72945405D01*
X116088884Y-72770025D01*
X116149709Y-72582826D01*
X116180500Y-72388422D01*
X116180500Y-72191577D01*
X116149709Y-71997173D01*
X116111357Y-71879140D01*
X116088884Y-71809975D01*
X116088882Y-71809972D01*
X116088882Y-71809970D01*
X115999523Y-71634594D01*
X115883828Y-71475354D01*
X115744646Y-71336172D01*
X115665025Y-71278324D01*
X115585403Y-71220474D01*
X115408787Y-71130485D01*
X115357990Y-71082511D01*
X115341195Y-71014690D01*
X115363732Y-70948555D01*
X115408787Y-70909515D01*
X115585403Y-70819525D01*
X115585402Y-70819525D01*
X115585405Y-70819524D01*
X115744646Y-70703828D01*
X115883828Y-70564646D01*
X115999524Y-70405405D01*
X116088884Y-70230025D01*
X116149709Y-70042826D01*
X116180500Y-69848422D01*
X116180500Y-69651577D01*
X116149709Y-69457173D01*
X116088882Y-69269970D01*
X115999523Y-69094594D01*
X115883828Y-68935354D01*
X115744646Y-68796172D01*
X115640457Y-68720474D01*
X115585403Y-68680474D01*
X115408787Y-68590485D01*
X115357990Y-68542511D01*
X115341195Y-68474690D01*
X115363732Y-68408555D01*
X115408787Y-68369515D01*
X115585403Y-68279525D01*
X115585402Y-68279525D01*
X115585405Y-68279524D01*
X115744646Y-68163828D01*
X115883828Y-68024646D01*
X115999524Y-67865405D01*
X116088884Y-67690025D01*
X116149709Y-67502826D01*
X116180500Y-67308422D01*
X116180500Y-67111577D01*
X116149709Y-66917173D01*
X116088882Y-66729970D01*
X115999523Y-66554594D01*
X115883828Y-66395354D01*
X115744646Y-66256172D01*
X115591377Y-66144815D01*
X115548714Y-66089487D01*
X115542735Y-66019873D01*
X115575341Y-65958078D01*
X115636180Y-65923721D01*
X115664264Y-65920499D01*
X115727872Y-65920499D01*
X115787483Y-65914091D01*
X115811034Y-65905307D01*
X115922329Y-65863797D01*
X115922329Y-65863796D01*
X115922331Y-65863796D01*
X115976389Y-65823328D01*
X116041847Y-65798911D01*
X116051119Y-65798597D01*
X139534052Y-65887253D01*
G37*
%TD.AperFunction*%
%TA.AperFunction,Conductor*%
G36*
X105336942Y-71840185D02*
G01*
X105357584Y-71856819D01*
X108693181Y-75192416D01*
X108726666Y-75253739D01*
X108729500Y-75280097D01*
X108729500Y-79303330D01*
X108729499Y-79303348D01*
X108729499Y-79469054D01*
X108729498Y-79469054D01*
X108770423Y-79621785D01*
X108779909Y-79638215D01*
X108849477Y-79758712D01*
X108849481Y-79758717D01*
X108968349Y-79877585D01*
X108968355Y-79877590D01*
X113676231Y-84585466D01*
X113709716Y-84646789D01*
X113711023Y-84692544D01*
X113679500Y-84891576D01*
X113679500Y-85088422D01*
X113710290Y-85282826D01*
X113771117Y-85470029D01*
X113860476Y-85645405D01*
X113976172Y-85804646D01*
X114115354Y-85943828D01*
X114274595Y-86059524D01*
X114397992Y-86122397D01*
X114451213Y-86149515D01*
X114502009Y-86197489D01*
X114518804Y-86265310D01*
X114496267Y-86331445D01*
X114451213Y-86370485D01*
X114274594Y-86460476D01*
X114219540Y-86500476D01*
X114115354Y-86576172D01*
X114115352Y-86576174D01*
X114115351Y-86576174D01*
X113976174Y-86715351D01*
X113976174Y-86715352D01*
X113976172Y-86715354D01*
X113947112Y-86755352D01*
X113860476Y-86874594D01*
X113771117Y-87049970D01*
X113710290Y-87237173D01*
X113679500Y-87431577D01*
X113679500Y-87628422D01*
X113710290Y-87822826D01*
X113771117Y-88010029D01*
X113860476Y-88185405D01*
X113976172Y-88344646D01*
X114115354Y-88483828D01*
X114274595Y-88599524D01*
X114397992Y-88662397D01*
X114451213Y-88689515D01*
X114502009Y-88737489D01*
X114518804Y-88805310D01*
X114496267Y-88871445D01*
X114451213Y-88910485D01*
X114274594Y-89000476D01*
X114219540Y-89040476D01*
X114115354Y-89116172D01*
X114115352Y-89116174D01*
X114115351Y-89116174D01*
X113976174Y-89255351D01*
X113976174Y-89255352D01*
X113976172Y-89255354D01*
X113943048Y-89300945D01*
X113860476Y-89414594D01*
X113771117Y-89589970D01*
X113710290Y-89777173D01*
X113679500Y-89971577D01*
X113679500Y-90168422D01*
X113710290Y-90362826D01*
X113771117Y-90550029D01*
X113860476Y-90725405D01*
X113976172Y-90884646D01*
X114115354Y-91023828D01*
X114274595Y-91139524D01*
X114372707Y-91189514D01*
X114451213Y-91229515D01*
X114502009Y-91277489D01*
X114518804Y-91345310D01*
X114496267Y-91411445D01*
X114451213Y-91450485D01*
X114274594Y-91540476D01*
X114219540Y-91580476D01*
X114115354Y-91656172D01*
X114115352Y-91656174D01*
X114115351Y-91656174D01*
X113976174Y-91795351D01*
X113976174Y-91795352D01*
X113976172Y-91795354D01*
X113947112Y-91835352D01*
X113860476Y-91954594D01*
X113771117Y-92129970D01*
X113710290Y-92317173D01*
X113679500Y-92511577D01*
X113679500Y-92708422D01*
X113710290Y-92902826D01*
X113771117Y-93090029D01*
X113860476Y-93265405D01*
X113976172Y-93424646D01*
X114115354Y-93563828D01*
X114274595Y-93679524D01*
X114373252Y-93729792D01*
X114451213Y-93769515D01*
X114502009Y-93817489D01*
X114518804Y-93885310D01*
X114496267Y-93951445D01*
X114451213Y-93990485D01*
X114274594Y-94080476D01*
X114219540Y-94120476D01*
X114115354Y-94196172D01*
X114115352Y-94196174D01*
X114115351Y-94196174D01*
X113976174Y-94335351D01*
X113976174Y-94335352D01*
X113976172Y-94335354D01*
X113947112Y-94375352D01*
X113860476Y-94494594D01*
X113771117Y-94669970D01*
X113710290Y-94857173D01*
X113679500Y-95051577D01*
X113679500Y-95248422D01*
X113710290Y-95442826D01*
X113771117Y-95630029D01*
X113860476Y-95805405D01*
X113976172Y-95964646D01*
X114115354Y-96103828D01*
X114224311Y-96182990D01*
X114274596Y-96219525D01*
X114451763Y-96309795D01*
X114502560Y-96357769D01*
X114519355Y-96425590D01*
X114496818Y-96491725D01*
X114451764Y-96530765D01*
X114274859Y-96620902D01*
X114239873Y-96646320D01*
X114239872Y-96646320D01*
X114841415Y-97247861D01*
X114756306Y-97270667D01*
X114653694Y-97329910D01*
X114569910Y-97413694D01*
X114510667Y-97516306D01*
X114487861Y-97601415D01*
X113886320Y-96999872D01*
X113886320Y-96999873D01*
X113860902Y-97034859D01*
X113860899Y-97034863D01*
X113771582Y-97210161D01*
X113710778Y-97397294D01*
X113680000Y-97591617D01*
X113680000Y-97788378D01*
X113684733Y-97818265D01*
X113675777Y-97887559D01*
X113630779Y-97941010D01*
X113564027Y-97961648D01*
X113496714Y-97942922D01*
X113474578Y-97925342D01*
X112936819Y-97387583D01*
X112903334Y-97326260D01*
X112900500Y-97299902D01*
X112900500Y-89469059D01*
X112900501Y-89469046D01*
X112900501Y-89300945D01*
X112900501Y-89300943D01*
X112859577Y-89148215D01*
X112813235Y-89067949D01*
X112780520Y-89011284D01*
X112668716Y-88899480D01*
X112668715Y-88899479D01*
X112664385Y-88895149D01*
X112664374Y-88895139D01*
X104123757Y-80354522D01*
X104090272Y-80293199D01*
X104093507Y-80228523D01*
X104107246Y-80186243D01*
X104140500Y-79976287D01*
X104140500Y-79763713D01*
X104107246Y-79553757D01*
X104041557Y-79351588D01*
X103945051Y-79162184D01*
X103945049Y-79162181D01*
X103945048Y-79162179D01*
X103820109Y-78990213D01*
X103669786Y-78839890D01*
X103497820Y-78714951D01*
X103497115Y-78714591D01*
X103489054Y-78710485D01*
X103438259Y-78662512D01*
X103421463Y-78594692D01*
X103443999Y-78528556D01*
X103489054Y-78489515D01*
X103497816Y-78485051D01*
X103560479Y-78439524D01*
X103669786Y-78360109D01*
X103669788Y-78360106D01*
X103669792Y-78360104D01*
X103820104Y-78209792D01*
X103820106Y-78209788D01*
X103820109Y-78209786D01*
X103945048Y-78037820D01*
X103945047Y-78037820D01*
X103945051Y-78037816D01*
X104041557Y-77848412D01*
X104107246Y-77646243D01*
X104140500Y-77436287D01*
X104140500Y-77223713D01*
X104107246Y-77013757D01*
X104041557Y-76811588D01*
X103945051Y-76622184D01*
X103945049Y-76622181D01*
X103945048Y-76622179D01*
X103820109Y-76450213D01*
X103669786Y-76299890D01*
X103497820Y-76174951D01*
X103497115Y-76174591D01*
X103489054Y-76170485D01*
X103438259Y-76122512D01*
X103421463Y-76054692D01*
X103443999Y-75988556D01*
X103489054Y-75949515D01*
X103497816Y-75945051D01*
X103560479Y-75899524D01*
X103669786Y-75820109D01*
X103669788Y-75820106D01*
X103669792Y-75820104D01*
X103820104Y-75669792D01*
X103820106Y-75669788D01*
X103820109Y-75669786D01*
X103945048Y-75497820D01*
X103945047Y-75497820D01*
X103945051Y-75497816D01*
X104041557Y-75308412D01*
X104107246Y-75106243D01*
X104140500Y-74896287D01*
X104140500Y-74683713D01*
X104107246Y-74473757D01*
X104041557Y-74271588D01*
X103945051Y-74082184D01*
X103945049Y-74082181D01*
X103945048Y-74082179D01*
X103820109Y-73910213D01*
X103669786Y-73759890D01*
X103497820Y-73634951D01*
X103497115Y-73634591D01*
X103489054Y-73630485D01*
X103438259Y-73582512D01*
X103421463Y-73514692D01*
X103443999Y-73448556D01*
X103489054Y-73409515D01*
X103497816Y-73405051D01*
X103560479Y-73359524D01*
X103669786Y-73280109D01*
X103669788Y-73280106D01*
X103669792Y-73280104D01*
X103820104Y-73129792D01*
X103820106Y-73129788D01*
X103820109Y-73129786D01*
X103945048Y-72957820D01*
X103945047Y-72957820D01*
X103945051Y-72957816D01*
X104041557Y-72768412D01*
X104107246Y-72566243D01*
X104140500Y-72356287D01*
X104140500Y-72143713D01*
X104112020Y-71963898D01*
X104120975Y-71894604D01*
X104165971Y-71841152D01*
X104232722Y-71820513D01*
X104234493Y-71820500D01*
X105269903Y-71820500D01*
X105336942Y-71840185D01*
G37*
%TD.AperFunction*%
%TD*%
M02*
