%TF.GenerationSoftware,KiCad,Pcbnew,9.0.4*%
%TF.CreationDate,2026-04-24T12:58:58-07:00*%
%TF.ProjectId,Tool-Display-PCB,546f6f6c-2d44-4697-9370-6c61792d5043,rev?*%
%TF.SameCoordinates,Original*%
%TF.FileFunction,Legend,Top*%
%TF.FilePolarity,Positive*%
%FSLAX46Y46*%
G04 Gerber Fmt 4.6, Leading zero omitted, Abs format (unit mm)*
G04 Created by KiCad (PCBNEW 9.0.4) date 2026-04-24 12:58:58*
%MOMM*%
%LPD*%
G01*
G04 APERTURE LIST*
%ADD10C,0.222250*%
%ADD11C,0.100000*%
%ADD12C,0.150000*%
%ADD13C,0.200000*%
%ADD14C,0.120000*%
G04 APERTURE END LIST*
D10*
X143979647Y-98342116D02*
X143090647Y-98342116D01*
X143090647Y-98342116D02*
X143090647Y-98130449D01*
X143090647Y-98130449D02*
X143132980Y-98003449D01*
X143132980Y-98003449D02*
X143217647Y-97918783D01*
X143217647Y-97918783D02*
X143302314Y-97876449D01*
X143302314Y-97876449D02*
X143471647Y-97834116D01*
X143471647Y-97834116D02*
X143598647Y-97834116D01*
X143598647Y-97834116D02*
X143767980Y-97876449D01*
X143767980Y-97876449D02*
X143852647Y-97918783D01*
X143852647Y-97918783D02*
X143937314Y-98003449D01*
X143937314Y-98003449D02*
X143979647Y-98130449D01*
X143979647Y-98130449D02*
X143979647Y-98342116D01*
X143513980Y-97453116D02*
X143513980Y-97156783D01*
X143979647Y-97029783D02*
X143979647Y-97453116D01*
X143979647Y-97453116D02*
X143090647Y-97453116D01*
X143090647Y-97453116D02*
X143090647Y-97029783D01*
X143979647Y-96648783D02*
X143090647Y-96648783D01*
X143090647Y-96648783D02*
X143979647Y-96140783D01*
X143979647Y-96140783D02*
X143090647Y-96140783D01*
X143090647Y-95844450D02*
X143090647Y-95336450D01*
X143979647Y-95590450D02*
X143090647Y-95590450D01*
X143090647Y-94870784D02*
X143090647Y-94701450D01*
X143090647Y-94701450D02*
X143132980Y-94616784D01*
X143132980Y-94616784D02*
X143217647Y-94532117D01*
X143217647Y-94532117D02*
X143386980Y-94489784D01*
X143386980Y-94489784D02*
X143683314Y-94489784D01*
X143683314Y-94489784D02*
X143852647Y-94532117D01*
X143852647Y-94532117D02*
X143937314Y-94616784D01*
X143937314Y-94616784D02*
X143979647Y-94701450D01*
X143979647Y-94701450D02*
X143979647Y-94870784D01*
X143979647Y-94870784D02*
X143937314Y-94955450D01*
X143937314Y-94955450D02*
X143852647Y-95040117D01*
X143852647Y-95040117D02*
X143683314Y-95082450D01*
X143683314Y-95082450D02*
X143386980Y-95082450D01*
X143386980Y-95082450D02*
X143217647Y-95040117D01*
X143217647Y-95040117D02*
X143132980Y-94955450D01*
X143132980Y-94955450D02*
X143090647Y-94870784D01*
X143979647Y-94108784D02*
X143090647Y-94108784D01*
X143090647Y-94108784D02*
X143979647Y-93600784D01*
X143979647Y-93600784D02*
X143090647Y-93600784D01*
X143894980Y-93177451D02*
X143937314Y-93135118D01*
X143937314Y-93135118D02*
X143979647Y-93177451D01*
X143979647Y-93177451D02*
X143937314Y-93219784D01*
X143937314Y-93219784D02*
X143894980Y-93177451D01*
X143894980Y-93177451D02*
X143979647Y-93177451D01*
X143090647Y-92838785D02*
X143979647Y-92627118D01*
X143979647Y-92627118D02*
X143344647Y-92457785D01*
X143344647Y-92457785D02*
X143979647Y-92288451D01*
X143979647Y-92288451D02*
X143090647Y-92076785D01*
X143090647Y-91568785D02*
X143090647Y-91399451D01*
X143090647Y-91399451D02*
X143132980Y-91314785D01*
X143132980Y-91314785D02*
X143217647Y-91230118D01*
X143217647Y-91230118D02*
X143386980Y-91187785D01*
X143386980Y-91187785D02*
X143683314Y-91187785D01*
X143683314Y-91187785D02*
X143852647Y-91230118D01*
X143852647Y-91230118D02*
X143937314Y-91314785D01*
X143937314Y-91314785D02*
X143979647Y-91399451D01*
X143979647Y-91399451D02*
X143979647Y-91568785D01*
X143979647Y-91568785D02*
X143937314Y-91653451D01*
X143937314Y-91653451D02*
X143852647Y-91738118D01*
X143852647Y-91738118D02*
X143683314Y-91780451D01*
X143683314Y-91780451D02*
X143386980Y-91780451D01*
X143386980Y-91780451D02*
X143217647Y-91738118D01*
X143217647Y-91738118D02*
X143132980Y-91653451D01*
X143132980Y-91653451D02*
X143090647Y-91568785D01*
X143979647Y-90298785D02*
X143556314Y-90595118D01*
X143979647Y-90806785D02*
X143090647Y-90806785D01*
X143090647Y-90806785D02*
X143090647Y-90468118D01*
X143090647Y-90468118D02*
X143132980Y-90383452D01*
X143132980Y-90383452D02*
X143175314Y-90341118D01*
X143175314Y-90341118D02*
X143259980Y-90298785D01*
X143259980Y-90298785D02*
X143386980Y-90298785D01*
X143386980Y-90298785D02*
X143471647Y-90341118D01*
X143471647Y-90341118D02*
X143513980Y-90383452D01*
X143513980Y-90383452D02*
X143556314Y-90468118D01*
X143556314Y-90468118D02*
X143556314Y-90806785D01*
X143979647Y-89917785D02*
X143090647Y-89917785D01*
X143979647Y-89409785D02*
X143471647Y-89790785D01*
X143090647Y-89409785D02*
X143598647Y-89917785D01*
X143937314Y-89071118D02*
X143979647Y-88944118D01*
X143979647Y-88944118D02*
X143979647Y-88732452D01*
X143979647Y-88732452D02*
X143937314Y-88647785D01*
X143937314Y-88647785D02*
X143894980Y-88605452D01*
X143894980Y-88605452D02*
X143810314Y-88563118D01*
X143810314Y-88563118D02*
X143725647Y-88563118D01*
X143725647Y-88563118D02*
X143640980Y-88605452D01*
X143640980Y-88605452D02*
X143598647Y-88647785D01*
X143598647Y-88647785D02*
X143556314Y-88732452D01*
X143556314Y-88732452D02*
X143513980Y-88901785D01*
X143513980Y-88901785D02*
X143471647Y-88986452D01*
X143471647Y-88986452D02*
X143429314Y-89028785D01*
X143429314Y-89028785D02*
X143344647Y-89071118D01*
X143344647Y-89071118D02*
X143259980Y-89071118D01*
X143259980Y-89071118D02*
X143175314Y-89028785D01*
X143175314Y-89028785D02*
X143132980Y-88986452D01*
X143132980Y-88986452D02*
X143090647Y-88901785D01*
X143090647Y-88901785D02*
X143090647Y-88690118D01*
X143090647Y-88690118D02*
X143132980Y-88563118D01*
D11*
X102061027Y-99672419D02*
X102394360Y-100672419D01*
X102394360Y-100672419D02*
X102727693Y-99672419D01*
X103632455Y-100577180D02*
X103584836Y-100624800D01*
X103584836Y-100624800D02*
X103441979Y-100672419D01*
X103441979Y-100672419D02*
X103346741Y-100672419D01*
X103346741Y-100672419D02*
X103203884Y-100624800D01*
X103203884Y-100624800D02*
X103108646Y-100529561D01*
X103108646Y-100529561D02*
X103061027Y-100434323D01*
X103061027Y-100434323D02*
X103013408Y-100243847D01*
X103013408Y-100243847D02*
X103013408Y-100100990D01*
X103013408Y-100100990D02*
X103061027Y-99910514D01*
X103061027Y-99910514D02*
X103108646Y-99815276D01*
X103108646Y-99815276D02*
X103203884Y-99720038D01*
X103203884Y-99720038D02*
X103346741Y-99672419D01*
X103346741Y-99672419D02*
X103441979Y-99672419D01*
X103441979Y-99672419D02*
X103584836Y-99720038D01*
X103584836Y-99720038D02*
X103632455Y-99767657D01*
X104632455Y-100577180D02*
X104584836Y-100624800D01*
X104584836Y-100624800D02*
X104441979Y-100672419D01*
X104441979Y-100672419D02*
X104346741Y-100672419D01*
X104346741Y-100672419D02*
X104203884Y-100624800D01*
X104203884Y-100624800D02*
X104108646Y-100529561D01*
X104108646Y-100529561D02*
X104061027Y-100434323D01*
X104061027Y-100434323D02*
X104013408Y-100243847D01*
X104013408Y-100243847D02*
X104013408Y-100100990D01*
X104013408Y-100100990D02*
X104061027Y-99910514D01*
X104061027Y-99910514D02*
X104108646Y-99815276D01*
X104108646Y-99815276D02*
X104203884Y-99720038D01*
X104203884Y-99720038D02*
X104346741Y-99672419D01*
X104346741Y-99672419D02*
X104441979Y-99672419D01*
X104441979Y-99672419D02*
X104584836Y-99720038D01*
X104584836Y-99720038D02*
X104632455Y-99767657D01*
D12*
X109959580Y-97666666D02*
X110007200Y-97714285D01*
X110007200Y-97714285D02*
X110054819Y-97857142D01*
X110054819Y-97857142D02*
X110054819Y-97952380D01*
X110054819Y-97952380D02*
X110007200Y-98095237D01*
X110007200Y-98095237D02*
X109911961Y-98190475D01*
X109911961Y-98190475D02*
X109816723Y-98238094D01*
X109816723Y-98238094D02*
X109626247Y-98285713D01*
X109626247Y-98285713D02*
X109483390Y-98285713D01*
X109483390Y-98285713D02*
X109292914Y-98238094D01*
X109292914Y-98238094D02*
X109197676Y-98190475D01*
X109197676Y-98190475D02*
X109102438Y-98095237D01*
X109102438Y-98095237D02*
X109054819Y-97952380D01*
X109054819Y-97952380D02*
X109054819Y-97857142D01*
X109054819Y-97857142D02*
X109102438Y-97714285D01*
X109102438Y-97714285D02*
X109150057Y-97666666D01*
X110054819Y-96714285D02*
X110054819Y-97285713D01*
X110054819Y-96999999D02*
X109054819Y-96999999D01*
X109054819Y-96999999D02*
X109197676Y-97095237D01*
X109197676Y-97095237D02*
X109292914Y-97190475D01*
X109292914Y-97190475D02*
X109340533Y-97285713D01*
X106759581Y-97566666D02*
X106807201Y-97614285D01*
X106807201Y-97614285D02*
X106854820Y-97757142D01*
X106854820Y-97757142D02*
X106854820Y-97852380D01*
X106854820Y-97852380D02*
X106807201Y-97995237D01*
X106807201Y-97995237D02*
X106711962Y-98090475D01*
X106711962Y-98090475D02*
X106616724Y-98138094D01*
X106616724Y-98138094D02*
X106426248Y-98185713D01*
X106426248Y-98185713D02*
X106283391Y-98185713D01*
X106283391Y-98185713D02*
X106092915Y-98138094D01*
X106092915Y-98138094D02*
X105997677Y-98090475D01*
X105997677Y-98090475D02*
X105902439Y-97995237D01*
X105902439Y-97995237D02*
X105854820Y-97852380D01*
X105854820Y-97852380D02*
X105854820Y-97757142D01*
X105854820Y-97757142D02*
X105902439Y-97614285D01*
X105902439Y-97614285D02*
X105950058Y-97566666D01*
X105950058Y-97185713D02*
X105902439Y-97138094D01*
X105902439Y-97138094D02*
X105854820Y-97042856D01*
X105854820Y-97042856D02*
X105854820Y-96804761D01*
X105854820Y-96804761D02*
X105902439Y-96709523D01*
X105902439Y-96709523D02*
X105950058Y-96661904D01*
X105950058Y-96661904D02*
X106045296Y-96614285D01*
X106045296Y-96614285D02*
X106140534Y-96614285D01*
X106140534Y-96614285D02*
X106283391Y-96661904D01*
X106283391Y-96661904D02*
X106854820Y-97233332D01*
X106854820Y-97233332D02*
X106854820Y-96614285D01*
D13*
X127469673Y-98367219D02*
X127469673Y-99176742D01*
X127469673Y-99176742D02*
X127517292Y-99271980D01*
X127517292Y-99271980D02*
X127564911Y-99319600D01*
X127564911Y-99319600D02*
X127660149Y-99367219D01*
X127660149Y-99367219D02*
X127850625Y-99367219D01*
X127850625Y-99367219D02*
X127945863Y-99319600D01*
X127945863Y-99319600D02*
X127993482Y-99271980D01*
X127993482Y-99271980D02*
X128041101Y-99176742D01*
X128041101Y-99176742D02*
X128041101Y-98367219D01*
X128469673Y-99319600D02*
X128612530Y-99367219D01*
X128612530Y-99367219D02*
X128850625Y-99367219D01*
X128850625Y-99367219D02*
X128945863Y-99319600D01*
X128945863Y-99319600D02*
X128993482Y-99271980D01*
X128993482Y-99271980D02*
X129041101Y-99176742D01*
X129041101Y-99176742D02*
X129041101Y-99081504D01*
X129041101Y-99081504D02*
X128993482Y-98986266D01*
X128993482Y-98986266D02*
X128945863Y-98938647D01*
X128945863Y-98938647D02*
X128850625Y-98891028D01*
X128850625Y-98891028D02*
X128660149Y-98843409D01*
X128660149Y-98843409D02*
X128564911Y-98795790D01*
X128564911Y-98795790D02*
X128517292Y-98748171D01*
X128517292Y-98748171D02*
X128469673Y-98652933D01*
X128469673Y-98652933D02*
X128469673Y-98557695D01*
X128469673Y-98557695D02*
X128517292Y-98462457D01*
X128517292Y-98462457D02*
X128564911Y-98414838D01*
X128564911Y-98414838D02*
X128660149Y-98367219D01*
X128660149Y-98367219D02*
X128898244Y-98367219D01*
X128898244Y-98367219D02*
X129041101Y-98414838D01*
X129803006Y-98843409D02*
X129945863Y-98891028D01*
X129945863Y-98891028D02*
X129993482Y-98938647D01*
X129993482Y-98938647D02*
X130041101Y-99033885D01*
X130041101Y-99033885D02*
X130041101Y-99176742D01*
X130041101Y-99176742D02*
X129993482Y-99271980D01*
X129993482Y-99271980D02*
X129945863Y-99319600D01*
X129945863Y-99319600D02*
X129850625Y-99367219D01*
X129850625Y-99367219D02*
X129469673Y-99367219D01*
X129469673Y-99367219D02*
X129469673Y-98367219D01*
X129469673Y-98367219D02*
X129803006Y-98367219D01*
X129803006Y-98367219D02*
X129898244Y-98414838D01*
X129898244Y-98414838D02*
X129945863Y-98462457D01*
X129945863Y-98462457D02*
X129993482Y-98557695D01*
X129993482Y-98557695D02*
X129993482Y-98652933D01*
X129993482Y-98652933D02*
X129945863Y-98748171D01*
X129945863Y-98748171D02*
X129898244Y-98795790D01*
X129898244Y-98795790D02*
X129803006Y-98843409D01*
X129803006Y-98843409D02*
X129469673Y-98843409D01*
X124768095Y-65336504D02*
X125244285Y-65336504D01*
X124672857Y-65622219D02*
X125006190Y-64622219D01*
X125006190Y-64622219D02*
X125339523Y-65622219D01*
X125672857Y-64955552D02*
X125672857Y-65622219D01*
X125672857Y-65050790D02*
X125720476Y-65003171D01*
X125720476Y-65003171D02*
X125815714Y-64955552D01*
X125815714Y-64955552D02*
X125958571Y-64955552D01*
X125958571Y-64955552D02*
X126053809Y-65003171D01*
X126053809Y-65003171D02*
X126101428Y-65098409D01*
X126101428Y-65098409D02*
X126101428Y-65622219D01*
X126434762Y-64955552D02*
X126815714Y-64955552D01*
X126577619Y-64622219D02*
X126577619Y-65479361D01*
X126577619Y-65479361D02*
X126625238Y-65574600D01*
X126625238Y-65574600D02*
X126720476Y-65622219D01*
X126720476Y-65622219D02*
X126815714Y-65622219D01*
X127530000Y-65574600D02*
X127434762Y-65622219D01*
X127434762Y-65622219D02*
X127244286Y-65622219D01*
X127244286Y-65622219D02*
X127149048Y-65574600D01*
X127149048Y-65574600D02*
X127101429Y-65479361D01*
X127101429Y-65479361D02*
X127101429Y-65098409D01*
X127101429Y-65098409D02*
X127149048Y-65003171D01*
X127149048Y-65003171D02*
X127244286Y-64955552D01*
X127244286Y-64955552D02*
X127434762Y-64955552D01*
X127434762Y-64955552D02*
X127530000Y-65003171D01*
X127530000Y-65003171D02*
X127577619Y-65098409D01*
X127577619Y-65098409D02*
X127577619Y-65193647D01*
X127577619Y-65193647D02*
X127101429Y-65288885D01*
X128006191Y-64955552D02*
X128006191Y-65622219D01*
X128006191Y-65050790D02*
X128053810Y-65003171D01*
X128053810Y-65003171D02*
X128149048Y-64955552D01*
X128149048Y-64955552D02*
X128291905Y-64955552D01*
X128291905Y-64955552D02*
X128387143Y-65003171D01*
X128387143Y-65003171D02*
X128434762Y-65098409D01*
X128434762Y-65098409D02*
X128434762Y-65622219D01*
X128910953Y-64955552D02*
X128910953Y-65622219D01*
X128910953Y-65050790D02*
X128958572Y-65003171D01*
X128958572Y-65003171D02*
X129053810Y-64955552D01*
X129053810Y-64955552D02*
X129196667Y-64955552D01*
X129196667Y-64955552D02*
X129291905Y-65003171D01*
X129291905Y-65003171D02*
X129339524Y-65098409D01*
X129339524Y-65098409D02*
X129339524Y-65622219D01*
X130244286Y-65622219D02*
X130244286Y-65098409D01*
X130244286Y-65098409D02*
X130196667Y-65003171D01*
X130196667Y-65003171D02*
X130101429Y-64955552D01*
X130101429Y-64955552D02*
X129910953Y-64955552D01*
X129910953Y-64955552D02*
X129815715Y-65003171D01*
X130244286Y-65574600D02*
X130149048Y-65622219D01*
X130149048Y-65622219D02*
X129910953Y-65622219D01*
X129910953Y-65622219D02*
X129815715Y-65574600D01*
X129815715Y-65574600D02*
X129768096Y-65479361D01*
X129768096Y-65479361D02*
X129768096Y-65384123D01*
X129768096Y-65384123D02*
X129815715Y-65288885D01*
X129815715Y-65288885D02*
X129910953Y-65241266D01*
X129910953Y-65241266D02*
X130149048Y-65241266D01*
X130149048Y-65241266D02*
X130244286Y-65193647D01*
D14*
%TO.C,C1*%
X108500000Y-93630000D02*
X110786000Y-93630000D01*
X108500000Y-101289602D02*
X108500000Y-93630000D01*
X110800000Y-93630000D02*
X110800000Y-101270000D01*
X110800000Y-101270000D02*
X108514083Y-101289482D01*
%TO.C,J1*%
X101460000Y-96380000D02*
X101460000Y-63300000D01*
X101460000Y-98980000D02*
X101460000Y-97650000D01*
X102790000Y-98980000D02*
X101460000Y-98980000D01*
X104120000Y-63300000D02*
X101460000Y-63300000D01*
X104120000Y-96380000D02*
X101460000Y-96380000D01*
X104120000Y-96380000D02*
X104120000Y-63300000D01*
%TO.C,J4*%
X143720000Y-73440000D02*
X145100000Y-73440000D01*
X143720000Y-74820000D02*
X143720000Y-73440000D01*
X143720000Y-76090000D02*
X143720000Y-86360000D01*
X143720000Y-76090000D02*
X146480000Y-76090000D01*
X143720000Y-86360000D02*
X146480000Y-86360000D01*
X146480000Y-76090000D02*
X146480000Y-86360000D01*
%TO.C,C2*%
X105250006Y-101285000D02*
X105250006Y-93665000D01*
X105307053Y-93665000D02*
X107592960Y-93644345D01*
X107593006Y-101285000D02*
X105307006Y-101285000D01*
X107650006Y-93665000D02*
X107650006Y-101285000D01*
%TO.C,J2*%
X113660000Y-101470000D02*
X113660000Y-63120000D01*
D11*
X139060000Y-63020000D02*
X113660000Y-63120000D01*
D14*
X141465000Y-101470000D02*
X113660000Y-101470000D01*
D11*
X141465000Y-101470000D02*
X141530000Y-63020000D01*
X141530000Y-63020000D02*
X139060000Y-63020000D01*
%TD*%
M02*
